<svg width="41" height="41" viewBox="0 0 41 41" fill="none" xmlns="http://www.w3.org/2000/svg">
<path d="M2.28223 24.8805V19.7229C2.28223 19.4887 2.47209 19.2988 2.70632 19.2988H7.62368C7.85791 19.2988 8.04785 19.4887 8.04785 19.7229V24.8805C8.04785 25.1147 7.85799 25.3047 7.62368 25.3047H2.70632C2.47209 25.3047 2.28223 25.1148 2.28223 24.8805Z" fill="#9B735A"/>
<path d="M5.16504 24.8805V19.7229C5.16504 19.4887 5.3549 19.2987 5.58921 19.2987H2.7064C2.47217 19.2987 2.28223 19.4886 2.28223 19.7229V24.8805C2.28223 25.1147 2.47209 25.3047 2.7064 25.3047H5.58921C5.3549 25.3047 5.16504 25.1148 5.16504 24.8805Z" fill="#8C5F50"/>
<path d="M6.0459 21.3008H4.28418V23.3027H6.0459V21.3008Z" fill="#BC886C"/>
<path d="M5.40527 40.1395V34.7337C5.40527 34.568 5.53956 34.4337 5.70525 34.4337H17.4373C17.6029 34.4337 17.7372 34.568 17.7372 34.7337V40.1395C17.7372 40.3052 17.6029 40.4395 17.4373 40.4395H5.70525C5.53956 40.4395 5.40527 40.3052 5.40527 40.1395Z" fill="#9B735A"/>
<path d="M10.2976 40.1395V34.7337C10.2976 34.568 10.4319 34.4337 10.5975 34.4337H5.70525C5.53956 34.4337 5.40527 34.568 5.40527 34.7337V40.1395C5.40527 40.3052 5.53956 40.4395 5.70525 40.4395H10.5975C10.4319 40.4395 10.2976 40.3052 10.2976 40.1395Z" fill="#8C5F50"/>
<path d="M15.7354 36.4355H7.40723V38.4375H15.7354V36.4355Z" fill="#BC886C"/>
<path d="M31.0303 40.1616V28.3853C31.0303 28.2319 31.1546 28.1074 31.3081 28.1074H36.7583C36.9118 28.1074 37.0362 28.2318 37.0362 28.3853V40.1616C37.0362 40.315 36.9119 40.4395 36.7583 40.4395H31.3081C31.1546 40.4395 31.0303 40.3151 31.0303 40.1616Z" fill="#9B735A"/>
<path d="M34.2734 40.1616V28.3853C34.2734 28.2319 34.3978 28.1074 34.5513 28.1074H31.3081C31.1547 28.1074 31.0303 28.2318 31.0303 28.3853V40.1616C31.0303 40.315 31.1546 40.4395 31.3081 40.4395H34.5513C34.3978 40.4395 34.2734 40.3151 34.2734 40.1616Z" fill="#8C5F50"/>
<path d="M35.0342 30.1094H33.0322V38.4375H35.0342V30.1094Z" fill="#BC886C"/>
<path d="M31.4307 23.2252V16.9741C31.4307 16.7986 31.573 16.6563 31.7484 16.6563H39.6812C39.8567 16.6563 39.9989 16.7986 39.9989 16.9741V23.2252C39.9989 23.4008 39.8566 23.543 39.6812 23.543H31.7484C31.573 23.543 31.4307 23.4007 31.4307 23.2252Z" fill="#9B735A"/>
<path d="M35.6703 23.2252V16.9741C35.6703 16.7986 35.8126 16.6563 35.9881 16.6563H31.7484C31.5729 16.6563 31.4307 16.7986 31.4307 16.9741V23.2252C31.4307 23.4008 31.573 23.543 31.7484 23.543H35.9881C35.8126 23.543 35.6703 23.4007 35.6703 23.2252Z" fill="#633927"/>
<path d="M37.9971 18.6582H33.4326V21.541H37.9971V18.6582Z" fill="#BC886C"/>
<path d="M22.9424 7.13744V0.870369C22.9424 0.699242 23.0811 0.560547 23.2522 0.560547H34.5642C34.7353 0.560547 34.874 0.699242 34.874 0.870369V7.13744C34.874 7.30857 34.7353 7.44727 34.5642 7.44727H23.2522C23.0811 7.44727 22.9424 7.30857 22.9424 7.13744Z" fill="#9B735A"/>
<path d="M27.4668 7.13744V0.870369C27.4668 0.699242 27.6055 0.560547 27.7766 0.560547H23.2522C23.0811 0.560547 22.9424 0.699242 22.9424 0.870369V7.13744C22.9424 7.30857 23.0811 7.44727 23.2522 7.44727H27.7766C27.6055 7.44727 27.4668 7.30857 27.4668 7.13744Z" fill="#8C5F50"/>
<path d="M32.8721 2.5625H24.9443V5.44531H32.8721V2.5625Z" fill="#BC886C"/>
<path d="M1.00098 11.5606V1.01171C1.00098 0.762504 1.20293 0.560547 1.45214 0.560547H8.55763C8.80683 0.560547 9.00879 0.762504 9.00879 1.01171V11.5606C9.00879 11.8098 8.80683 12.0117 8.55763 12.0117H1.45214C1.20293 12.0117 1.00098 11.8098 1.00098 11.5606Z" fill="#9B735A"/>
<path d="M5.00488 11.5606V1.01171C5.00488 0.762504 5.20684 0.560547 5.45604 0.560547H1.45214C1.20293 0.560547 1.00098 0.762504 1.00098 1.01171V11.5606C1.00098 11.8098 1.20293 12.0117 1.45214 12.0117H5.45604C5.20684 12.0117 5.00488 11.8097 5.00488 11.5606Z" fill="#8C5F50"/>
<path d="M7.00684 2.5625H3.00293V10.0098H7.00684V2.5625Z" fill="#BC886C"/>
<path d="M11.5713 30.5311V10.5489C11.5713 10.3396 11.741 10.1699 11.9503 10.1699H28.0888C28.2981 10.1699 28.4678 10.3396 28.4678 10.5489V30.5311C28.4678 30.7405 28.2981 30.9102 28.0888 30.9102H11.9503C11.741 30.9102 11.5713 30.7405 11.5713 30.5311Z" fill="#9B735A"/>
<path d="M16.3359 30.5311V10.5489C16.3359 10.3396 16.5056 10.1699 16.7149 10.1699H11.9503C11.741 10.1699 11.5713 10.3396 11.5713 10.5489V30.5311C11.5713 30.7405 11.741 30.9102 11.9503 30.9102H16.7149C16.5056 30.9102 16.3359 30.7405 16.3359 30.5311Z" fill="#7F533B"/>
<path d="M13.5732 28.7236V12.3565C13.5732 12.2545 13.6559 12.1719 13.7578 12.1719H26.2812C26.3832 12.1719 26.4658 12.2545 26.4658 12.3565V28.7236C26.4658 28.8256 26.3832 28.9082 26.2812 28.9082H13.7578C13.6559 28.9082 13.5732 28.8256 13.5732 28.7236Z" fill="#A0D755"/>
<path d="M18.498 28.7236V12.3565C18.498 12.2545 18.5807 12.1719 18.6826 12.1719H13.7578C13.6559 12.1719 13.5732 12.2545 13.5732 12.3565V28.7236C13.5732 28.8256 13.6559 28.9082 13.7578 28.9082H18.6826C18.5807 28.9082 18.498 28.8256 18.498 28.7236Z" fill="#81C11E"/>
<path d="M13.5411 28.9082L17.619 22.3683C17.7282 22.1931 17.9841 22.1956 18.0899 22.3729L21.9904 28.9082H13.5411Z" fill="#FFDC64"/>
<path d="M18.0899 22.3729C17.9841 22.1956 17.7282 22.1931 17.619 22.3683L13.5411 28.9082H15.7354L18.9313 23.7826L18.0899 22.3729Z" fill="#FFBD52"/>
<path d="M26.4658 23.0625H21.9014V28.9883H26.4658V23.0625Z" fill="#FF507D"/>
<path d="M17.7773 24.9043C16.3423 24.9043 15.1748 23.7368 15.1748 22.3018C15.1748 20.8668 16.3423 19.6992 17.7773 19.6992C19.2123 19.6992 20.3799 20.8668 20.3799 22.3018C20.3799 23.7368 19.2123 24.9043 17.7773 24.9043Z" fill="#4AA9FF"/>
<path d="M17.369 22.3018C17.369 21.2586 17.9862 20.3573 18.8745 19.9426C18.5409 19.7868 18.1692 19.6992 17.7774 19.6992C16.3424 19.6992 15.1749 20.8668 15.1749 22.3018C15.1749 23.7368 16.3423 24.9043 17.7773 24.9043C18.1691 24.9043 18.5408 24.8167 18.8744 24.6609C17.9862 24.2462 17.369 23.3449 17.369 22.3018Z" fill="#2892E0"/>
<path d="M24.0956 23.0625H21.9014V28.9883H24.0956V23.0625Z" fill="#F94646"/>
<path d="M9.56934 11.9717V0.600586C9.56934 0.268902 9.30043 0 8.96875 0H1.04102C0.709332 0 0.44043 0.268902 0.44043 0.600586V11.9717C0.44043 12.3034 0.709332 12.5723 1.04102 12.5723H8.96875C9.30043 12.5723 9.56934 12.3034 9.56934 11.9717ZM8.36816 11.3711H1.6416V1.20117H8.36816V11.3711Z" fill="black"/>
<path d="M17.6973 33.873H5.44531C5.11363 33.873 4.84473 34.1419 4.84473 34.4736V40.3994C4.84473 40.7311 5.11363 41 5.44531 41H17.6973C18.0289 41 18.2979 40.7311 18.2979 40.3994V34.4736C18.2979 34.1419 18.0289 33.873 17.6973 33.873ZM17.0967 39.7988H6.0459V35.0742H17.0967V39.7988Z" fill="black"/>
<path d="M36.9961 27.5469H31.0703C30.7386 27.5469 30.4697 27.8158 30.4697 28.1475V34.8397C30.4697 35.1714 30.7386 35.4403 31.0703 35.4403C31.402 35.4403 31.6709 35.1714 31.6709 34.8397V28.748H36.3955V39.7988H31.6709V38.336C31.6709 38.0043 31.402 37.7354 31.0703 37.7354C30.7386 37.7354 30.4697 38.0043 30.4697 38.336V40.3994C30.4697 40.7311 30.7386 41 31.0703 41H36.9961C37.3278 41 37.5967 40.7311 37.5967 40.3994V28.1475C37.5967 27.8158 37.3278 27.5469 36.9961 27.5469Z" fill="black"/>
<path d="M39.959 16.0957H31.4707C31.139 16.0957 30.8701 16.3646 30.8701 16.6963V23.5029C30.8701 23.8346 31.139 24.1035 31.4707 24.1035H39.959C40.2907 24.1035 40.5596 23.8346 40.5596 23.5029V16.6963C40.5596 16.3646 40.2907 16.0957 39.959 16.0957ZM39.3584 22.9023H32.0713V17.2969H39.3584V22.9023Z" fill="black"/>
<path d="M22.9824 8.00781H34.834C35.1657 8.00781 35.4346 7.73891 35.4346 7.40723V0.600586C35.4346 0.268902 35.1657 0 34.834 0H22.9824C22.6507 0 22.3818 0.268902 22.3818 0.600586V7.40723C22.3818 7.73891 22.6507 8.00781 22.9824 8.00781ZM23.583 1.20117H34.2334V6.80664H23.583V1.20117Z" fill="black"/>
<path d="M8.6084 25.2646V19.3389C8.6084 19.0072 8.3395 18.7383 8.00781 18.7383H2.32227C1.99058 18.7383 1.72168 19.0072 1.72168 19.3389V25.2646C1.72168 25.5963 1.99058 25.8652 2.32227 25.8652H8.00781C8.3395 25.8652 8.6084 25.5963 8.6084 25.2646ZM7.40723 24.6641H2.92285V19.9395H7.40723V24.6641Z" fill="black"/>
<path d="M28.4277 9.60938H11.6113C11.2796 9.60938 11.0107 9.87828 11.0107 10.21V30.8701C11.0107 31.2018 11.2796 31.4707 11.6113 31.4707H28.4277C28.7594 31.4707 29.0283 31.2018 29.0283 30.8701V10.21C29.0283 9.87828 28.7594 9.60938 28.4277 9.60938ZM27.8271 30.2695H12.2119V10.8105H27.8271V30.2695Z" fill="black"/>
<path d="M26.4258 11.6113H13.6133C13.2816 11.6113 13.0127 11.8802 13.0127 12.2119V28.8682C13.0127 28.8895 13.0139 28.9104 13.0161 28.9311C13.0162 28.9325 13.0165 28.934 13.0167 28.9354C13.0193 28.9583 13.0233 28.9808 13.0284 29.0028C13.0298 29.0086 13.0314 29.0143 13.0329 29.0202C13.0379 29.0394 13.0438 29.0582 13.0507 29.0766C13.0524 29.0813 13.054 29.0861 13.0559 29.0909C13.0651 29.114 13.0756 29.1365 13.0875 29.1581C13.0877 29.1585 13.0879 29.159 13.0881 29.1595C13.0891 29.1612 13.0903 29.1626 13.0912 29.1643C13.102 29.1834 13.1139 29.2015 13.1267 29.2192C13.1307 29.2247 13.1347 29.23 13.1388 29.2354C13.1511 29.2512 13.164 29.2663 13.1777 29.2808C13.1806 29.2839 13.1833 29.2872 13.1862 29.2903C13.2027 29.307 13.2203 29.3225 13.2387 29.3372C13.2434 29.3409 13.2483 29.3444 13.2531 29.348C13.2681 29.3593 13.2835 29.3698 13.2995 29.3796C13.3046 29.3827 13.3096 29.386 13.3148 29.3888C13.3563 29.4127 13.4008 29.4317 13.4478 29.4451C13.4533 29.4467 13.4588 29.4479 13.4643 29.4494C13.4828 29.4541 13.5014 29.4579 13.5205 29.4608C13.5268 29.4618 13.5331 29.4629 13.5395 29.4637C13.5637 29.4667 13.5882 29.4687 13.6132 29.4687H26.4257C26.7574 29.4687 27.0263 29.1998 27.0263 28.8681V12.2118C27.0264 11.8802 26.7575 11.6113 26.4258 11.6113ZM14.6955 28.2676L16.5883 25.2321C16.9557 25.3816 17.3569 25.4648 17.7773 25.4648C18.2235 25.4648 18.6482 25.3715 19.0335 25.204L20.862 28.2676H14.6955ZM25.8252 28.1074H22.542V23.4629H25.8252V28.1074ZM25.8252 22.2617H21.9414C21.6097 22.2617 21.3408 22.5306 21.3408 22.8623V26.7262L20.0262 24.5234C20.591 23.9518 20.9404 23.1669 20.9404 22.3018C20.9404 21.3268 20.4969 20.4539 19.8011 19.8734C19.4094 19.5467 18.8144 19.8233 18.8144 20.3334C18.8144 20.5131 18.8964 20.6816 19.0343 20.797C19.5165 21.2003 19.8029 21.8301 19.7273 22.5214C19.6287 23.4233 18.9035 24.1505 18.0018 24.2511C16.82 24.383 15.8155 23.4574 15.8155 22.3018C15.8155 21.779 16.0212 21.3035 16.3556 20.9516C16.461 20.8407 16.5193 20.6933 16.5193 20.5404C16.5193 20.0018 15.8605 19.7313 15.4888 20.1211C14.9472 20.6888 14.6143 21.4571 14.6143 22.3018C14.6143 23.1938 14.986 24.0002 15.582 24.5758L14.2139 26.77V12.8125H25.8252V22.2617Z" fill="black"/>
</svg>
