<svg fill="none" xmlns="http://www.w3.org/2000/svg" viewBox="0 0 892 892"><g id="preloader"><path fill="#fff" d="M0 0h892v892H0z"/><path id="background" d="M892 0H0v892h892V0Z" fill="#E8C197"/><g id="Group 1"><path id="innerframe" d="M640 250H250v390h390V250Z" stroke="#D07F2C" stroke-width="2" stroke-miterlimit="10"/><path id="outerframe" d="M661 661V230H230v431h431Z" stroke="#D07F2C" stroke-width="5" stroke-miterlimit="10"/><g id="painting1"><mask id="mask0_4_2" style="mask-type:alpha" maskUnits="userSpaceOnUse" x="250" y="250" width="390" height="390"><path id="painting1frame" fill="#C4C4C4" d="M250 250h390v390H250z"/></mask><g mask="url(#mask0_4_2)" stroke="#D07F2C" stroke-width="2"><path id="painting1line19" d="M452.435 587.874c5.568-9.265 7.721-10.256 12.367-8.957" stroke-miterlimit="10" stroke-linecap="round"/><path id="painting1line18" d="M441.008 569.02c11.734 6.837 13.289 6.837 9.582 12.991l-3.706 6.171" stroke-miterlimit="10" stroke-linecap="round"/><path id="painting1line17" d="M451.205 532.251a36.6 36.6 0 0 0 8.335 12.974" stroke-miterlimit="10" stroke-linecap="round"/><path id="painting1line16" d="M446.884 559.755a17.878 17.878 0 0 1 8.335-8.65" stroke-miterlimit="10" stroke-linecap="round"/><path id="painting1line15" d="M438.548 536.883c6.166 7.111 5.551 12.974.922 19.47-1.417 1.983-3.279 4.684-.136 5.931a69.364 69.364 0 0 0 14.86 4.77c6.354.974 16.688 1.453 21.71-3.59 4.338-4.325 9.89-6.188 13.665-3.709 3.775 2.478 3.706 7.726 4.629 12.051.922 4.324 2.545 13.008 2.545 13.008" stroke-miterlimit="10" stroke-linecap="round"/><path id="painting1line14" d="M431.152 549.55c2.152 4.957 8.335 6.837 8.335 6.837" stroke-miterlimit="10" stroke-linecap="round"/><path id="painting1line13" d="M423.107 543.994c2.784-8.957 10.248-9.265 10.248-9.265" stroke-miterlimit="10" stroke-linecap="round"/><path id="painting1line12" d="M413.832 546.473c7.72-8.974 8.609-14.65 2.63-15.504" stroke-miterlimit="10" stroke-linecap="round"/><path id="painting1line10" d="M402.729 562.849c0-4.94 2.152-2.479 8.951-2.171 6.798.307 9.258 1.863 11.734-1.539" stroke-miterlimit="10" stroke-linecap="round"/><path id="painting1line9" d="m383.325 529.55 2.768 4.017" stroke-miterlimit="10" stroke-linecap="round"/><path id="painting1line8" d="M379.568 549.242c2.767-7.111 4.936-7.726.922-12.051a18.811 18.811 0 0 1-4.629-9.573" stroke-miterlimit="10" stroke-linecap="round"/><path id="painting1line7" d="M366.894 546.473c4.014-4.017 4.646 10.803 13.903 9.265 9.258-1.539 12.657-.616 14.827 4.632 2.169 5.248 4.321 12.667 2.459 17.008" stroke-miterlimit="10" stroke-linecap="round"/><path id="painting1line6" d="M637.302 538.097s-45.026-6.068-55.206 12.837c0 0-3.177 7.162-3.894 21.812-.342 7.094 1.195 23.64-9.924 22.017a4.206 4.206 0 0 1-3.792-3.693 5.808 5.808 0 0 1 .837-2.666c3.621-7.145 5.944-14.256 5.432-22.222a33.42 33.42 0 0 1 0-4.564 11.468 11.468 0 0 0-7.192-11.59 24.73 24.73 0 0 1-8.13-5.128c-9.514-8.991-30.199 32.478-32.573 37.931a6.928 6.928 0 0 1-4.288 3.419 4.103 4.103 0 0 1-4.39-2.615c-1.007-2.667.376-5.556 2.272-7.607 3.946-4.239 8.131-7.453 9.907-13.333 1.298-4.24 1.862-8.667 3.416-12.804 1.179-3.059 4.424-5.35 5.125-8.546.7-3.197-1.162-6.086-.632-9.316.973-6.103 4.543-11.094 6.251-16.94a28.24 28.24 0 0 0-5.261-25.641c-2.101-2.53-4.987-4.82-8.267-4.718-4.509.137-7.55 4.462-10.692 7.709a46.435 46.435 0 0 1-13.272 8.992 27.053 27.053 0 0 1-10.249 3.23 11.055 11.055 0 0 1-9.548-3.965 2.692 2.692 0 0 1-.53-1.111 3.3 3.3 0 0 1 1.111-2.445c7.854-9.423 12.072-20.596 11.222-32.837m142.301-34.375c-5.961 3.726-13.665 3.641-20.497 2.188-12.982-2.684-24.118-6.958-37.698-5.129a121.83 121.83 0 0 0-26.509 7.265c-4.271 1.539-8.524 3.334-12.811 4.957-.803.308-2.545.77-4.475 1.317a4.153 4.153 0 0 1-5.329-4.137c.102-2.444-.154-5.008-.154-7.436-.017-1.743-.496-3.846-2.426-4.068a3.156 3.156 0 0 0-3.091 2 62.906 62.906 0 0 0-5.125 18.273c1.435-13.367-3.467-24.581-16.073-24.957-9.411-.29-22.905 1.419-33.154 1.077a1.022 1.022 0 0 0-.996.572 1.02 1.02 0 0 0-.094.593c.028.203.116.392.253.544 6.337 7.539 18.123 3.112 26.834 3.556a17.475 17.475 0 0 1 8.387 2.82c2.665 1.624 4.424 5.111 3.177 7.966a18.068 18.068 0 0 0-10.575 4.362 18.096 18.096 0 0 0-5.84 9.843 30.611 30.611 0 0 1-26.202 1.009s-14.297-5.983-16.739-16.735a.31.31 0 0 0-.299-.236.305.305 0 0 0-.299.236c-.102 10.871 6.921 23.032 17.542 25.931 9.395 2.564 20.873 2.329 25.621 0" stroke-miterlimit="10" stroke-linecap="round"/><path id="painting1line5" d="M490.764 461.739c2.733-.684 3.986 1.425 4.271 2.564"/><path id="painting1line4" d="M382.369 445.996c17.696-6.41 20.207-13.675 20.002-20.701-.291-9.743 12.981-25.401 24.494-26.871 11.512-1.47 13.664-1.163 15.817-3.829 2.152-2.667 1.434 4.29 1.896 8.547.461 4.256 10.914 13.299 12.981 15.076 2.067 1.778.598 5.317-4.424 4.428-5.022-.889-12.981-5.607-14.758-6.205-8.848 12.41.291 32.478.291 32.478" stroke-miterlimit="10" stroke-linecap="round"/><path id="painting1line3" d="M288.936 553.225c8.097 7.76 24.597 12.957 32.027 12.632 7.43-.325 6.491 20.393 6.832 24.598l12.282-.325c-.718-5.726-3.417-11.453-2.938-17.316.461-5.418 4.236-9.162 7.635-13.008 4.407-4.957 9.77-9.966 13.22-15.641 4.817-7.931 2.99-18.324.803-26.803a4.266 4.266 0 0 1-.188-1.709 2.891 2.891 0 0 1 2.392-2.12c5.431-.974 11.956 2.496 17.183 3.607 10.402 2.171 24.443 5.88 31.839-4.171a3.423 3.423 0 0 0 .769-1.59c.273-2.615-5.005-4.17-6.833-5.213a91.47 91.47 0 0 1-19.182-15.692c-4.065-4.274-8.933-8.393-11.427-13.863-2.699-5.915.649-11.556 3.297-16.752 7.054-13.829 7.208-27.504 6.098-42.649 0-.581-.222-1.316-.803-1.385-.25.008-.492.085-.7.223-4.544 2.769-4.237 8.546-4.339 13.145-.097 7.38-1.728 14.413-3.997 21.435-1.708 3.419-6.832 11.966-9.394 10.256 0 0-6.833-5.128-19.644 1.129-2.254-21.043 23.026-34.325 23.026-34.325 3.894-4.205 3.245-8.752-2.255-6.478-5.5 2.273-30.097 19.076-30.097 37.88-10.436-7.778-12.93-4.582-8.728.974 4.202 5.555 9.07 12.701 1.947 10.684-7.123-2.018-8.404-10.445-20.053-13.675-11.649-3.231-21.351 10.358-56.931 14.256" stroke-miterlimit="10" stroke-linecap="round"/><path id="painting1line2" d="M250.982 427.586c108.686 15.538 136.511-67.333 172.74-57.623 36.228 9.709 67.042-8.222 73.106-11.641" stroke-miterlimit="10" stroke-linecap="round"/><path id="painting1line1" d="M259.062 604.762c129.08-37.862 122.145 11.111 216.09 17.693 89.539 6.29 150.774-16.188 163.892-23.778" stroke-miterlimit="10" stroke-linecap="round"/></g></g><g id="painting2"><mask id="mask1_4_2" style="mask-type:alpha" maskUnits="userSpaceOnUse" x="250" y="250" width="390" height="390"><path id="painting2frame" fill="#C4C4C4" d="M250 250h390v390H250z"/></mask><g mask="url(#mask1_4_2)" stroke="#D07F2C" stroke-width="2" stroke-miterlimit="10"><path id="painting2line24" d="M535.002 556.516c65.147 14.41 104.74 38.956 105.389 49.777.257 4.017.308 18.119.291 34.187"/><path id="painting2line23" d="M472.657 414.905c2.562-5.128 5.192-12.848.956-16.609a8.987 8.987 0 0 0-6.832-1.88c-9.924.752-15.253 9.948-14.57 19.196.478 6.478 2.391 16.615 7.891 20.906 4.014 3.145 8.797 10.256 11.513 14.769.99 1.709 1.708 2.974 2.032 3.675.957 2.085 2.716 6.136 6.696 6.974a8.334 8.334 0 0 0 3.263 0c1.281 3.214 2.75 6.325 4.184 9.487 2.221 4.923 6.628 8.786 7.584 14.273.479 2.718-.358 5.693-.273 8.445.103 3.418 2.118 4.017 4.817 5.777 8.387 5.453 16.312 11.966 25.45 16.051a84.616 84.616 0 0 0 26.578 6.257c5.415.547 12.128 1.709 17.081-1.06 6.491-3.761 6.662-12.957 4.732-19.367-.462-1.487-1.708-3.607-1.35-5.128.666-3.009 3.553-2.718 5.347-4.479 2.101-2.068 1.417-4.051 1.434-6.479.017-2.427 2.477-3.914 1.982-6.632a17.274 17.274 0 0 0-2.374-4.923 4.239 4.239 0 0 1-.496-3.709c1.162-2.616 5.961-3.077 8.353-3.419 8.899-1.47 6.029-10.667 3.501-16.478-4.902-11.231-10.248-22.222-15.372-33.436-3.741-8.102-4.219-17.213-6.235-25.811" stroke-linecap="round"/><path id="painting2line22" d="M569.403 389.937a4.37 4.37 0 0 0 .393-1.709 38.078 38.078 0 0 0-.239-9.145c-.308-2.154-.666-5.129-2.648-6.496a6.48 6.48 0 0 0-3.518-.581c-1.418 0-2.836-.205-4.253-.291a702.143 702.143 0 0 0-8.678-.461 599.952 599.952 0 0 0-17.61-.53c-13.033-.171-26.441-.547-38.449 5.128-4.1 1.914-6.149 5.966-7.533 10.051-3.706 10.906-6.115 22.222-8.899 33.435 0 0-.786 3.419.41 3.881 0 0-.905.102 5.466.102s6.473-4.581 6.473-4.581c1.196-7.47 4.39-15.145 9.959-23.709 5.38-8.273 19.011-6.085 26.475-6.376 7.464-.291 37.049 2.684 39.286 2.889 3.331-.154 3.365-1.607 3.365-1.607Z"/><path id="painting2line21" d="M523.148 419.27a33.374 33.374 0 0 0 16.756 7.949c2.832.36 5.692.445 8.541.256 1.161-.103 2.289-.103 3.416-.103 3.58.161 7.157-.368 10.539-1.555 3.126-1.333-1.486-6.291-8.541-9.709a33.33 33.33 0 0 0-8.711-2.804 18.299 18.299 0 0 0-5.944.103c-5.022.82-10.419 3.265-16.637 5.402-9.866 3.714-25.997 2.933-32.829 2.079" stroke-linecap="round"/><path id="painting2line20" d="M492.881 640.081H429.1c.12-12.923.325-26.735.649-41.179 0 0 29.226 16.102 34.572.222 1.708.103 4.441-63.52 6.132-113.964.41-12.325.752-23.931 1.025-33.504.991 1.71 1.708 2.975 2.033 3.658.956 2.086 2.699 6.103 6.696 6.94 3.604 15.744 10.743 49.572 11.068 70.991l1.281 85.024v.632l.325 21.18Z"/><path id="painting2line19" d="M581.377 477.337h-4.219c-4.219 0-11.496 5.812-21.249 6.838 14.843-.581 19.712 2.496 23.316 1.47" stroke-linecap="round"/><path id="painting2line18" d="M576.663 493.047c-9.31-.582-14.417-8.872-14.417-8.872"/><path id="painting2line17" d="M551.998 427.219c2.733-1.231 4.868-3.795 5.124-8.889"/><path id="painting2line16" d="M534.319 414.962c.136 4.889 1.827 10.086 5.022 12.137"/><path id="painting2line15" d="M470.641 484.944c-34.999-15.384-29.55-70.221 1.401-177.04"/><path id="painting2line14" d="M405.495 402.775c6.029-40.376 12.315-81.589 13.664-90.512"/><path id="painting2line13" d="M419.176 312.263c.103-.598.171-1.06.222-1.35V310.485c22.206-4.581 52.712-2.94 52.712-2.94l-.119.359"/><path id="painting2line12" d="M473.255 307.785c34.674.632 63.199 8.546 73.208 21.709 18.977 25.213 20.497 43.11 20.497 43.11"/><path id="painting2line11" d="m419.313 312.263.205-1.35V310.485s-20.053 2.188-35.733 10.923a55.723 55.723 0 0 0-3.246 1.915 35.89 35.89 0 0 0-12.623 12.7c-.239.445-.461.889-.683 1.351-6.747 14.29-6.559 29.23 0 41.196 6.576 12.085 19.592 21.316 38.381 24.205"/><path id="painting2line10" d="M382.128 320.034c1.708-14.085-12.76-15.121-12.76-15.121l-4.253.666-6.832-13.675c92.954-47.862 208.182-.649 208.182-.649l-3.279 12.119c-.649 6.838-18.004 7.846-19.643 15.385l-1.709 5.549" stroke-linecap="round"/><path id="painting2line9" d="m367.763 336.006-33.65-12.41c-9.497 20.632 1.299 65.504 14.4 72.717l17.473-16.598" stroke-linecap="round"/><path id="painting2line8" d="m367.421 378.296-.29.291"/><path id="painting2line7" d="M402.557 559.917c-19.011 1.043-57.392 10.257-78.761 20.513a79.93 79.93 0 0 0-5.875 3.077c-11.137 6.478-18.926 28.598-22.411 57.042h-20.138c7.157-137.383 45.35-216.612 90.529-260.834l1.213-1.145c6.576 12.085 19.557 21.316 38.381 24.205-3.895 26.068-7.67 51.777-9.942 68.221-3.364 24.29-4.219 60.358 7.004 88.921Z"/><path id="painting2line6" d="m367.114 378.553-1.213 1.162"/><path id="painting2line5" d="M403.462 559.883h-.905"/><path id="painting2line4" d="M541.988 521.576c-15.048 22.598.871 49.008-21.71 75.213-22.581 26.204-28.474 22.221-28.474 22.221"/><path id="painting2line3" d="M323.865 580.379a201 201 0 0 0 16.637 60.17"/><path id="painting2line2" d="M613.506 640.549a164.757 164.757 0 0 0 18.379-44.444"/><path id="painting2line1" d="M491.446 414.905c11.377-1.904 21.424-6.209 30.763-12.985 11.017-7.727 32.795-9.556 40.994 3.419" stroke-linecap="round"/></g></g><g id="painting3"><mask id="mask2_4_2" style="mask-type:alpha" maskUnits="userSpaceOnUse" x="250" y="250" width="390" height="390"><path id="painting3frame" fill="#C4C4C4" d="M250 250h390v390H250z"/></mask><g mask="url(#mask2_4_2)" stroke="#D07F2C" stroke-width="2"><path id="painting3line19" d="M448.326 319.938c-6.337-4.957-34.162-14.923-54.146-12.803a94.294 94.294 0 0 0-21.659 4.769 39.774 39.774 0 0 0-14.143 8.068 33.737 33.737 0 0 0-8.848 15.008c-.273.872-.512 1.71-.752 2.65-3.621 14.478-2.681 29.828-1.708 44.58.94 14.103-1.417 23.265 1.401 39.008 3.416 18.701 8.78 34.188 20.155 49.572 4.561 6.12 9.737 12.701 16.945 15.795a25.205 25.205 0 0 0 22.683-1.265 132.954 132.954 0 0 1 22.855-8.872c10.248-3.265 20.24-8.256 23.913-19.008 4.441-12.889-.923-26.82 3.723-39.658 2.375-6.546 6.508-12.273 9.412-18.58 4.851-10.496-1.366-18.804-.102-29.385.785-6.615 1.708-11.538-.24-18.102-3.125-10.889-9.667-26.495-19.813-32.068 25.228 13.863 29.225 40.051 30.745 65.572" stroke-miterlimit="10" stroke-linecap="round"/><path id="painting3line18" d="M354.33 381.322c4.082-3.761 9.497-7.077 15.133-7.505 4.185-.324 8.507-.119 11.957 2.941 3.45 3.059 4.544 7.948 4.304 12.392 0 6.766-.153 12.616-5.277 28" stroke-miterlimit="10" stroke-linecap="round"/><path id="painting3line17" d="M376.569 451.474c2.887-.307 4.151 1.026 7.755.94 3.604-.085 2.733 2.889 7.43 2.188 4.697-.7 2.972-1.401 7.669-1.247 4.698.153 12.914.239 16.501-3.06" stroke-miterlimit="10" stroke-linecap="round"/><path id="painting3line16" d="M388.458 449.355a9.406 9.406 0 0 0 6.183-.154" stroke-miterlimit="10" stroke-linecap="round"/><path id="painting3line15" d="M408.254 457.201c-.478.974-1.315 2.205-6.098 4.393a28.5 28.5 0 0 1-10.06 2.205 7.517 7.517 0 0 1-7.345-3.795" stroke-miterlimit="10" stroke-linecap="round"/><path id="painting3line14" d="M408.34 424.996a16.354 16.354 0 0 1 1.708 6.171 3.581 3.581 0 0 1-.541 2.343 3.566 3.566 0 0 1-1.902 1.469 6.536 6.536 0 0 1-4.885-.428 6.163 6.163 0 0 0-7.276.941c-2.511 2.188-4.066 3.914-8.541 2.495-4.475-1.418-4.236-3.914-8.54-5.316-2.221-.718.153-5.487.222-6.119" stroke-miterlimit="10" stroke-linecap="round"/><path id="painting3line13" d="M381.608 484.551c9.719 5.863 23.913 11.418 35.375 10.854 11.461-.564 22.803-5.35 32.966-10.769 9.736-5.128 24.101-20.119 28.508-30.854" stroke-miterlimit="10" stroke-linecap="round"/><path id="painting3line12" d="M406.529 639.625a239.63 239.63 0 0 1-39.457-8.547c-15.8-4.701-37.322-12.051-38.705-31.538-.786-10.957 30.745-63.247 68.324-73.144 4.526-1.196 3.604-2.359 2.818-6.102 0 0-2.221-8.957-3.536-18.308a91.986 91.986 0 0 1-.939-10.376" stroke-miterlimit="10" stroke-linecap="round"/><path id="painting3line11" d="M266.858 639.625c2.972-8.683 5.21-15.521 6.218-18.358 3.877-10.923 19.558-33.248 50.542-57.572m-.393.461c33.573-25.64 65.379-36.751 76.865-39.315"/><path id="painting3line10" d="M634.5 639c-9.651-23.606-21.172-44.177-44.197-58.092l-1.708-1.025c-7.977-4.582-16.586-7.898-25.946-7.812a99.284 99.284 0 0 0-29.038 5.47c-20.394 6.444-39.115 17.675-55.769 31.008-10.276 8.93-19.677 24.267-23.093 30.82" stroke-miterlimit="10" stroke-linecap="round"/><path id="painting3line9" d="M395.819 501.918c14.792 6.342 27.33 45.435 44.53 34.991 20.976-12.684 30.866.444 38.962-3.18" stroke-miterlimit="10" stroke-linecap="round"/><path id="painting3line8" d="M323.738 563.609c-.12-21.64 13.22-21.709 13.101-43.367-.12-21.657-13.426-21.572-13.545-43.23-.12-21.657 13.22-21.709 13.101-43.367-.12-21.657-13.426-21.572-13.545-43.23a34.33 34.33 0 0 1 4.287-17.452c2.425-4.274 5.432-8.171 7.054-12.872 1.469-4.29 1.298-8.889 2.135-13.299a93.298 93.298 0 0 1 3.57-13.384 129.08 129.08 0 0 1 3.041-7.932 93.342 93.342 0 0 1 9.736-17.572 77.347 77.347 0 0 1 25.058-22.735 84.5 84.5 0 0 1 14.023-6.29 98.738 98.738 0 0 1 14.143-3.693 116.666 116.666 0 0 1 11.957-1.538c1.127 0 2.237-.086 3.416-.086 2.835 0 5.654 0 8.54.24 27.518 1.914 54.659 14.752 71.74 37.059 19.78 25.897 21.01 61.025 17.457 92.187-1.315 11.418 8.062 21.76 9.258 31.897 1.383 11.521-3.519 23.333-1.315 33.196 2.545 11.47 12.127 19.982 15.372 29.384 4.014 11.299 2.221 23.931 6.833 32.478 5.944 11.145 17.781 16.342 23.469 23.401 12.947 16.068 3.955 19.357 17.876 27.596" stroke-miterlimit="10" stroke-linecap="round"/><path id="painting3line7" d="M478.85 384.911c1.281 21.453-13.05 22.359-11.769 43.829 1.281 21.469 15.8 20.598 17.081 42.067 1.281 21.47-13.238 22.325-11.957 43.794 1.281 21.47 15.8 20.513 17.081 42.051 1.281 21.538-13.221 22.342-11.957 43.794a37.424 37.424 0 0 0 1.145 7.47" stroke-miterlimit="10" stroke-linecap="round"/><path id="painting3line6" d="M393.001 307.374c.939-18.102 13.853-32.478 13.853-32.478" stroke-miterlimit="10"/><path id="painting3line5" d="M442.468 388.193c4.594-.957 12.042-7.829 10.009-9.555-2.033-1.727-6.149-1.111-8.387-1.334-9.736-.957-18.789-5.367-28.491-5.675a16.373 16.373 0 0 0-10.38 2.8 16.39 16.39 0 0 0-6.41 8.636c-2.323 8.034-1.896 17.094-1.708 25.316v.376" stroke-miterlimit="10" stroke-linecap="round"/><path id="painting3line4" d="M407.861 391.133c-1.879-.769-3.416-3.128.479-4.53 3.894-1.401 12.981-5.965 19.404-4.239 6.422 1.727 9.855 5.128 8.762 6.12a15.192 15.192 0 0 1-4.065 1.88" stroke-miterlimit="10" stroke-linecap="round"/><path id="painting3line3" d="M423.61 391.68a4.682 4.682 0 0 0 4.68-4.683 4.682 4.682 0 0 0-4.68-4.684 4.682 4.682 0 0 0-4.68 4.684 4.682 4.682 0 0 0 4.68 4.683Z" stroke-miterlimit="10"/><path id="painting3line2" d="M371.787 390.569a3.964 3.964 0 0 0 3.962-3.966 3.963 3.963 0 1 0-7.925 0 3.964 3.964 0 0 0 3.963 3.966Z" stroke-miterlimit="10"/><path id="painting3line1" d="M358.566 386.911c9.856-7.675 17.61-5.008 20.89-1.419 1.845 2.019 2.118 4.342 0 5.163" stroke-miterlimit="10" stroke-linecap="round"/></g></g><g id="painting4"><mask id="mask3_4_2" style="mask-type:alpha" maskUnits="userSpaceOnUse" x="250" y="250" width="390" height="390"><path id="painting4frame" fill="#C4C4C4" d="M250 250h390v390H250z"/></mask><g mask="url(#mask3_4_2)" stroke="#D07F2C" stroke-width="2"><path id="painting4line49" d="M281.377 638.514c-37.385-33.499-4.847-62.509-3.78-105.159.203-8.048-2.574-15.741-4.945-23.434a89.437 89.437 0 0 1 2.523-59.306 30.92 30.92 0 0 0 2.184-6.507 4.468 4.468 0 0 0 0-.491c.475-3.677-.745-7.337-1.693-10.896a116.414 116.414 0 0 1-3.269-49.2c.054-.366.661-.32.68.05.22 4.257.981 8.475 2.268 12.55a51.432 51.432 0 0 0 2.878 7.049c.533 1.098 2.052 4.822 3.63 6.724.153.185.44.1.484-.137 1.545-8.17 2.437-16.648 2.405-24.955a5.368 5.368 0 0 1 5.908-5.428c.225.023.413-.19.348-.407-10.851-36.529-4.105-67.749 1.419-101.11.045-.273.404-.344.545-.106a44.302 44.302 0 0 1 5.715 29.513c-1.558 12.013-7.467 17.791-4.995 37.905 1.405 11.302 9.82 20.638 12.309 31.771 3.169 14.193-3.074 30.263 3.754 43.03a.296.296 0 0 0 .488.051l4.677-5.524c.186-.22.545-.074.529.214-1.456 26.238.098 48.879 6.934 74.232a.3.3 0 0 0 .559.053l4.634-9.692a.297.297 0 0 1 .543.011 69.248 69.248 0 0 1 5.43 26.759c0 8.902-1.436 18.62 6.061 23.043.192.113.434-.028.443-.251.701-17.287 5.522-24.378 6.641-25.801.117-.149.335-.133.446.02 4.944 6.821 11.718 12.164 17.225 18.494a71.62 71.62 0 0 1 17.671 44.842c.009.289.395.411.582.19 3.808-4.486 10.067-4.254 12.094-4.044.257.026.34.343.149.516-4.053 3.682-4.49 10.118-2.422 15.379.324.837.714 1.648 1.168 2.423 3.386 5.744 9.211 9.557 14.68 13.369 5.469 3.813 11.039 8.134 13.545 14.318 3.81 9.472-1.923 20.724-6.359 29.942" stroke-miterlimit="10" stroke-linecap="round"/><path id="painting4line48" d="M369.418 527.645c14.172.424 23.197-14.844 36.099-14.844a29.205 29.205 0 0 1 20.623 8.812" stroke-miterlimit="10" stroke-linecap="round"/><path id="painting4line47" d="M471.06 502.55c11.446-5.778 22.012-10.624 30.071-11.251 22.57-1.695 32.814 3.795 38.182 9.607" stroke-miterlimit="10" stroke-linecap="round"/><path id="painting4line46" d="M409.377 523.561c14.155 1.932 31.561-5.778 48.239-14.165" stroke-miterlimit="10" stroke-linecap="round"/><path id="painting4line45" d="M382.422 435.178a27.59 27.59 0 0 1 6.605 20.102 27.594 27.594 0 0 1-9.568 18.871 22.013 22.013 0 0 1-16.045 5.28 22.008 22.008 0 0 1-15.059-7.652 17.668 17.668 0 0 1 1.896-24.892 14.117 14.117 0 0 1 19.912 1.525 11.323 11.323 0 0 1-1.219 15.928 9.04 9.04 0 0 1-12.733-.966 7.219 7.219 0 0 1 .779-10.167 5.778 5.778 0 0 1 4.202-1.375 5.757 5.757 0 0 1 2.17.609 5.76 5.76 0 0 1 1.772 1.393" stroke-miterlimit="10" stroke-linecap="round"/><path id="painting4line44" d="M361.5 370c5.943-4.524 17.413-12.874 24-16.5 12.394-6.863 24.182-9.907 38.337-7.332a34.5 34.5 0 0 1 18.202 8.795 22.026 22.026 0 0 1 6.773 18.639c-1.033 6.778-6.502 12.895-13.292 13.759h-.999" stroke-miterlimit="10" stroke-linecap="round"/><path id="painting4line43" d="M338.653 372.67a15.865 15.865 0 0 1 10.85-5.492 15.868 15.868 0 0 1 11.551 3.797 12.73 12.73 0 0 1 1.287 17.945 10.163 10.163 0 0 1-6.957 3.492 10.15 10.15 0 0 1-7.385-2.459 8.152 8.152 0 0 1-.812-11.488 6.5 6.5 0 0 1 9.177-.661 5.226 5.226 0 0 1 .525 7.354" stroke-miterlimit="10" stroke-linecap="round"/><path id="painting4line42" d="M345.431 387.236C321.5 392.5 327 398.5 306.5 403.5" stroke-linecap="round"/><path id="painting4line41" d="M358.988 492.807c43.193-4.185 46.41-23.875 79.292-18.639 32.882 5.236 38.673-18.385 66.39-12.912 27.718 5.473 55.452 1.305 67.728-20.639 9.465-16.944 45.834-31.381 65.475-38.108" stroke-miterlimit="10" stroke-linecap="round"/><path id="painting4line40" d="M320.095 311.839a18.278 18.278 0 0 1 3.675 25.552 14.604 14.604 0 0 1-20.437 2.948 11.664 11.664 0 0 1-4.307-12.242 11.687 11.687 0 0 1 1.97-4.109 9.326 9.326 0 0 1 13.122-1.881 7.474 7.474 0 0 1 1.507 10.455 6.012 6.012 0 0 1-6.338 2.25 6.018 6.018 0 0 1-2.128-1.03" stroke-miterlimit="10" stroke-linecap="round"/><path id="painting4line40_2" d="M462.78 310.076a24.875 24.875 0 0 1 5.962-26.979 24.836 24.836 0 0 1 8.177-5.215 19.879 19.879 0 0 1 15.218.324 19.903 19.903 0 0 1 10.535 10.995 15.938 15.938 0 0 1-.276 12.182 15.92 15.92 0 0 1-8.8 8.422 12.693 12.693 0 0 1-9.74-.207 12.727 12.727 0 0 1-6.734-7.045 10.166 10.166 0 0 1 2.439-11.05 10.15 10.15 0 0 1 3.351-2.133 8.141 8.141 0 0 1 10.549 4.643 6.527 6.527 0 0 1-3.708 8.472 5.226 5.226 0 0 1-2.008.363 5.227 5.227 0 0 1-3.668-1.606 5.225 5.225 0 0 1-1.097-1.722" stroke-miterlimit="10" stroke-linecap="round"/><path id="painting4line39" d="M508.632 325.123a20.573 20.573 0 0 1 15.514 2.761 20.6 20.6 0 0 1 9.02 12.93c.944 4.26.16 8.721-2.18 12.403a16.457 16.457 0 0 1-10.298 7.236c-3.411.751-6.98.117-9.923-1.764a13.18 13.18 0 0 1-5.773-8.268 10.542 10.542 0 0 1 8.025-12.573 8.468 8.468 0 0 1 10.058 6.422 6.785 6.785 0 0 1-.89 5.067 6.771 6.771 0 0 1-4.19 2.982 5.397 5.397 0 0 1-6.434-4.117" stroke-miterlimit="10" stroke-linecap="round"/><path id="painting4line38" d="M387.5 270.488a14.595 14.595 0 0 1 11.024 1.958 14.629 14.629 0 0 1 6.41 9.191 11.657 11.657 0 0 1-4.723 12.11 11.625 11.625 0 0 1-4.185 1.818 9.357 9.357 0 0 1-3.645.076 9.358 9.358 0 0 1-3.397-1.327 9.358 9.358 0 0 1-4.093-5.872 7.496 7.496 0 0 1 1.005-5.641 7.478 7.478 0 0 1 4.695-3.278 5.98 5.98 0 0 1 7.13 4.56 4.794 4.794 0 0 1-3.64 5.707 3.841 3.841 0 0 1-4.57-2.912" stroke-miterlimit="10" stroke-linecap="round"/><path id="painting4line37" d="M361.645 282.815a5.1 5.1 0 0 0 3.493-1.593 5.15 5.15 0 0 0 1.42-3.582 6.19 6.19 0 0 0-.496-2.376 6.056 6.056 0 0 0-1.368-1.983 6.007 6.007 0 0 0-2.03-1.286 6.095 6.095 0 0 0-2.384-.395 7.82 7.82 0 0 0-2.966.695 8.054 8.054 0 0 0-4.158 4.372 7.944 7.944 0 0 0-.557 3.01 9.687 9.687 0 0 0 .78 3.714 9.471 9.471 0 0 0 2.141 3.098 9.397 9.397 0 0 0 3.176 2.008 9.54 9.54 0 0 0 3.727.614 12.239 12.239 0 0 0 4.633-1.093 12.596 12.596 0 0 0 6.488-6.841c.591-1.503.885-3.102.864-4.704-.051-4.045-1.697-7.866-4.576-10.623-2.879-2.758-6.755-4.227-10.778-4.083-5.028.181-9.827 2.361-13.341 6.062-3.515 3.702-4.549 7.769-7.115 14.28-2.565 6.512-13.38 5.183-19.643 4.274" stroke-miterlimit="10" stroke-linecap="round"/><path id="painting4line36" d="M312.24 285.73a11.846 11.846 0 0 1-8.237-3.666 11.87 11.87 0 0 1-3.277-8.405 9.462 9.462 0 0 1 2.925-6.606 9.446 9.446 0 0 1 6.733-2.61 7.549 7.549 0 0 1 5.283 2.34 7.56 7.56 0 0 1 2.084 5.392 6.044 6.044 0 0 1-6.157 5.865 4.81 4.81 0 0 1-4.688-4.929" stroke-miterlimit="10" stroke-linecap="round"/><path id="painting4line35" d="M601.644 345.356c3.573-3.821 7.457-11.679 5.979-10.256-3.417 3.289-7.263 6.888-15.815 7.089a17.261 17.261 0 0 1-16.12-20.23 17.268 17.268 0 0 1 12.428-13.666 17.25 17.25 0 0 1 8.388-.186c.222.05.36-.252.167-.373a24.215 24.215 0 0 0-12.878-3.673 24.472 24.472 0 0 0-13.124 3.818 24.508 24.508 0 0 0-11.163 23.774 24.49 24.49 0 0 0 16.752 20.223 24.473 24.473 0 0 0 13.662.409c4.5-1.163 8.549-3.532 11.724-6.929Z" stroke-miterlimit="10"/><path id="painting4line34" d="M306.999 258.178c-18.79-.959-14.519 29.88-48.681 24.791" stroke-linecap="round"/><path id="painting4line33" d="M515.083 446.497a12.693 12.693 0 0 0 14.206-1.101 16.56 16.56 0 0 0 5.892-13.403 19.744 19.744 0 0 0-9.668-16.267c-8.466-4.88-19.455-2.66-27.904 2.254-8.449 4.914-15.238 12.149-23.145 17.978-22.249 16.555-53.573 27.484-76.939 6.557a55.3 55.3 0 0 1-11.852-15.25" stroke-miterlimit="10" stroke-linecap="round"/><path id="painting4line32" d="M373.564 409.812a41.357 41.357 0 0 1 1.831-18.3c4.995-14.606 20.234-28.806 36.674-25.942a19.374 19.374 0 0 1 12.919 8.354c2.896 4.456 2.134 9.624 3.133 14.589 2.303 11.37 12.699 15.487 22.926 17.961a77.468 77.468 0 0 0 32.661.593c16.509-3.202 33.339-11.692 49.628-2.965 19.319 10.353 25.397 38.617 4.199 50.41-.934.525-1.895 1-2.879 1.423-12.343 5.185-25.313 0-34.913-8.269a32.89 32.89 0 0 1-1.185-1.05" stroke-miterlimit="10" stroke-linecap="round"/><path id="painting4line31" d="M393.698 387.92c-13.223 31.618 25.788 61 59.939 47.089" stroke-miterlimit="10" stroke-linecap="round"/><path id="painting4line30" d="M286.628 316.037c-16.5 14.5-20.5-1-36.5 5"/><path id="painting4line29" d="M249.777 345.356S257.5 357 284.5 343" stroke-linecap="round"/><path id="painting4line28" d="M408.802 389.614c.863 24.367 40.264 48.021 79.359 22.028" stroke-miterlimit="10" stroke-linecap="round"/><path id="painting4line27" d="M249.777 358.369C258.074 362.096 266.5 363.5 285 356" stroke-miterlimit="10" stroke-linecap="round"/><path id="painting4line26" d="M296 353.5c15.5-2 28.149-7.747 38.437-13.737 12.292-7.354 22.621-17.249 36.403-21.909 29.851-10.167 63.851-7.117 91.924 6.93 16.627 8.32 31.154 21.503 35.319 40.328 0 .356.153.695.221 1.051 3.894 19.554-5.554 38.651-27.853 35.685" stroke-miterlimit="10" stroke-linecap="round"/><path id="painting4line25" d="M249.777 415.811C257 415.5 258 423 271.5 414.5" stroke-miterlimit="10" stroke-linecap="round"/><path id="painting4line24" d="M249.777 372.771C256.5 377 266 377.5 287.5 367.5" stroke-miterlimit="10" stroke-linecap="round"/><path id="painting4line23" d="M249.777 386.903C254.989 387.07 260 390 272 383.5" stroke-miterlimit="10" stroke-linecap="round"/><path id="painting4line22" d="M301.5 364.5c44.48-13.556 61.907-37.767 93.265-43.274 26.854-4.711 60.125 2.423 79.224 23.028 6.773 7.303 11.379 17.08 10.38 27.23-1.186 11.946-8.686 20.926-20.776 22.688a34.939 34.939 0 0 1-4.791.373" stroke-miterlimit="10" stroke-linecap="round"/><path id="painting4line21" d="M306.025 374.534c14.629-2.83 27.735-10.167 40.18-18.097 12.19-7.744 24.111-16.945 37.859-21.638a80.08 80.08 0 0 1 42.787-2.644c13.038 2.813 26.555 8.057 36.302 17.639C471.5 358 474.5 374.534 451.5 387.5" stroke-miterlimit="10" stroke-linecap="round"/><path id="painting4line19" d="M298.458 289.802c20.2-.221 80.408 30.323 125.972 1.737 45.564-28.586 46.19-28.399 46.19-28.399" stroke-miterlimit="10" stroke-linecap="round"/><path id="painting4line18" d="M406.922 282.109c17.524-.813 39.079-18.258 38.554-18.173" stroke-miterlimit="10" stroke-linecap="round"/><path id="painting4line17" d="M548.083 324.496a35.766 35.766 0 0 1 9.937-20.9 35.708 35.708 0 0 1 43.351-6.018 35.744 35.744 0 0 1 15.246 17.404 35.781 35.781 0 0 1 1.399 23.103 35.752 35.752 0 0 1-13.034 19.12 35.712 35.712 0 0 1-22.005 7.124 35.717 35.717 0 0 1-21.755-7.858" stroke-miterlimit="10" stroke-linecap="round"/><path id="painting4line16" d="M596.559 370.484a42.206 42.206 0 0 1-40.7-6.912 42.285 42.285 0 0 1-15.361-38.347" stroke-miterlimit="10" stroke-linecap="round"/><path id="painting4line15" d="M543.569 306.698c4.628-8.977 12.083-16.149 21.193-20.388a44.913 44.913 0 0 1 29.135-3.034 45.21 45.21 0 0 1 24.877 15.591 45.867 45.867 0 0 1 10.2 27.686" stroke-miterlimit="10" stroke-linecap="round"/><path id="painting4line14" d="M624.378 338.238a42.091 42.091 0 0 1-18.015 26.536" stroke-miterlimit="10" stroke-linecap="round"/><path id="painting4line13" d="m391.7 571.836 32.662-13.115 9.668-.423 3.878-4.524 12.19-.221 5.199 7.964 6.772-.661-1.473-9.489a137.327 137.327 0 0 0 1.575-34.973c-1.439-21.079-1.439-22.232-1.439-22.232 6.163 43.802 11.971 56.697 11.971 56.697l-.322 11.946 3.826 2.186 3.099-7.134 8.788.254 5.74 10.032 1.422 12.606 8.178 8.473 8.584.152-1.862-10.167 4.453-15.335 23.992-1.033 3.082 24.824 5.3 3.558c5.875-5.304 13.545-5.693 17.609-3.694a15.908 15.908 0 0 0 7.602 1.695V579.5l19.806-1 .072 9.146 19.049-.288V581l28.379-1.5" stroke-miterlimit="10" stroke-linecap="round"/><path id="painting4line12" d="M530.135 317.125c0-30.974 44.277-60.221 83.813-38.278" stroke-miterlimit="10" stroke-linecap="round"/><path id="painting4line11" d="M520.688 304.061c7.179-39.345 51.134-44.242 51.134-44.242" stroke-miterlimit="10" stroke-linecap="round"/><path id="painting4line10" d="M548.625 366.587c28.784 24.078 60.583 20.638 81.646 2.135" stroke-miterlimit="10" stroke-linecap="round"/><path id="painting4line9" d="M530.999 378.617c32.171 24.519 68.134 29.433 105.232 5.202" stroke-miterlimit="10" stroke-linecap="round"/><path id="painting4line8" d="M473.989 531.729c31.375 1.067 61.954-31.178 73.772-28.806 11.819 2.372 17.83 1.932 21.267-1.932 3.437-3.863 14.832-5.592 19.336-3.66 4.504 1.932 10.159-2.355 13.326-5.083 3.166-2.728 13.545-9.032 30.731-8.473 1.829 0 3.64.085 5.418 0" stroke-miterlimit="10" stroke-linecap="round"/><path id="painting4line7" d="M525.953 534.745c15.459-11.302 32.865-7.1 41.907-7.422 9.041-.322 20.623-7.1 33.863-5.49 13.241 1.61 10.634 5.49 24.823 3.558 3.893-.393 7.954-1.891 12.954-5.391" stroke-miterlimit="10" stroke-linecap="round"/><path id="painting4line6" d="M324.278 420.674c23.213-14.2 35.675-11.184 40.399-21.503" stroke-miterlimit="10" stroke-linecap="round"/><path id="painting4line5" d="M322.94 452.919c4.301-24.502 26.651-22.367 35.235-25.806 8.585-3.44 9.025-13.319 9.025-13.319" stroke-miterlimit="10" stroke-linecap="round"/><path id="painting4line4" d="M250.319 438.754C255.043 431.874 265.5 440 274.5 433" stroke-miterlimit="10" stroke-linecap="round"/><path id="painting4line3" d="M249.879 459.799C258 448.5 262 457 274 451.5" stroke-miterlimit="10" stroke-linecap="round"/><path id="painting4line2" d="M250 525.5c10-7.5 17 4.5 27 1.5" stroke-miterlimit="10"/><path id="painting4line1" d="m269.5 574-19.621.632" stroke-miterlimit="10"/><path id="painting4line20" d="M289.628 290.037c-15 3.5-10.5 12-39.5 12"/></g></g><g id="painting5"><mask id="mask4_4_2" style="mask-type:alpha" maskUnits="userSpaceOnUse" x="250" y="250" width="390" height="390"><path id="painting5frame" fill="#C4C4C4" d="M250 250h390v390H250z"/></mask><g mask="url(#mask4_4_2)" stroke="#D07F2C" stroke-width="2" stroke-miterlimit="10"><path id="painting5line33" d="m472.107 641.011 19.633-71.722 6.602-24.103 2.495-9.139 3.95-14.393 16.165-59.089c.002-.005.002-.011.002-.017v0a.05.05 0 0 1 .003-.017l5.577-20.35 4.107-14.999 22.595-82.612 3.968-14.445 16.39-59.916c.08-.291.492-.295.578-.005l25.502 86.73 2.114 7.214 9.6 32.653 7.656 26.037a.05.05 0 0 1 .003.017v0l.002.017 10.724 36.459.797 2.688" stroke-linecap="round"/><path id="painting5line30" d="m574.497 570.469-1.386-.018"/><path id="painting5line29" d="m459.631 568.613-59.728-.694"/><path id="painting5line28" d="M342.478 347.934a81.965 81.965 0 0 1-7.284 33.799 81.919 81.919 0 0 1-20.571 27.78A81.806 81.806 0 0 1 250 429.176V266.693a81.806 81.806 0 0 1 64.623 19.662 81.919 81.919 0 0 1 20.571 27.78 81.972 81.972 0 0 1 7.284 33.799Z"/><path id="painting5line27" d="M327.992 346.408a67.05 67.05 0 0 1-19.615 47.392 66.947 66.947 0 0 1-47.357 19.63 66.062 66.062 0 0 1-11.02-.919V280.305a68.04 68.04 0 0 1 11.02-.902 66.919 66.919 0 0 1 47.356 19.62 67.043 67.043 0 0 1 19.616 47.385Z"/><path id="painting5line26" d="M292.453 348.558a31.527 31.527 0 0 1-3.601 14.578 31.494 31.494 0 0 1-23.946 16.628A31.468 31.468 0 0 1 250 378.038v-58.959a30.953 30.953 0 0 1 11.003-1.994 31.452 31.452 0 0 1 29.056 19.429 31.485 31.485 0 0 1 2.394 12.044Z"/><path id="painting5line25" d="M250.988 470.898c27.724-8.22 36.388 21.069 64.112 12.849 27.725-8.219 19.061-37.508 46.785-45.727 27.725-8.22 36.389 21.069 64.113 12.849 27.725-8.219 19.061-37.508 46.785-45.727" stroke-linecap="round"/><path id="painting5line24" d="M423.884 358.154v1.109a47.214 47.214 0 0 1-5.206 21.516 47.138 47.138 0 0 1-34.93 25.106 47.122 47.122 0 0 1-22.036-1.934" stroke-linecap="round"/><path id="painting5line23" d="m253.448 493.996 228.415-76.525" stroke-linecap="round"/><path id="painting5line22" d="M381.084 343.252h41.587" stroke-linecap="round"/><path id="painting5line21" d="M386.907 352.79h40.01" stroke-linecap="round"/><path id="painting5line20" d="M398.828 300.039v121.698" stroke-linecap="round"/><path id="painting5line19" d="m374.448 305.345 80.817 37.647" stroke-linecap="round"/><path id="painting5line18" d="M455.403 396.801a134.452 134.452 0 0 1 19.513-61.162 134.314 134.314 0 0 1 45.64-45.12 137.808 137.808 0 0 1 6.636-3.728" stroke-linecap="round"/><path id="painting5line17" d="M463.443 394.078a99.504 99.504 0 0 1 16.794-44.447 99.407 99.407 0 0 1 35.484-31.575 89.366 89.366 0 0 1 5.043-2.497" stroke-linecap="round"/><path id="painting5line16" d="M541.332 310.808c5.579 0 10.102-4.527 10.102-10.11 0-5.584-4.523-10.11-10.102-10.11-5.579 0-10.102 4.526-10.102 10.11 0 5.583 4.523 10.11 10.102 10.11Z"/><path id="painting5line15" d="M617.193 335.293c5.579 0 10.102-4.526 10.102-10.11 0-5.583-4.523-10.11-10.102-10.11-5.579 0-10.102 4.527-10.102 10.11 0 5.584 4.523 10.11 10.102 10.11Z"/><path id="painting5line14" d="m515.756 305.415 112.884 71.229c.309.195.066.668-.273.532l-109.613-44.172" stroke-linecap="round"/><path id="painting5line13" d="M573.076 382.841c5.025 0 9.097-4.076 9.097-9.104s-4.072-9.104-9.097-9.104c-5.024 0-9.097 4.076-9.097 9.104s4.073 9.104 9.097 9.104Z"/><path id="painting5line12" d="M506.001 413.24c11.215 0 20.308-9.1 20.308-20.324 0-11.224-9.093-20.323-20.308-20.323-11.216 0-20.309 9.099-20.309 20.323s9.093 20.324 20.309 20.324Z"/><path id="painting5line11" d="m387.548 536.689 195.007-36.052" stroke-linecap="round"/><path id="painting5line10" d="m381.188 562.891 177.333-52.318" stroke-linecap="round"/><path id="painting5line9" d="m364.027 469.385-40.693 102.851a.3.3 0 0 1-.421.154l-58.798-31.526a.301.301 0 0 0-.4.111l-2.868 4.799a.3.3 0 0 0 .107.414l104.443 60.538a.3.3 0 0 0 .376-.062L520.73 429.743a.301.301 0 0 0-.013-.41l-6.461-6.465a.3.3 0 0 0-.433.009l-35.243 38.489a.3.3 0 0 1-.439.004l-3.982-4.189a.3.3 0 0 0-.432-.003l-36.55 37.383a.3.3 0 0 1-.425.004l-20.393-20.053a.3.3 0 0 0-.445.027l-19.502 24.454a.301.301 0 0 1-.441.031l-31.459-29.747a.3.3 0 0 0-.485.108Z"/><path id="painting5line8" d="m494.253 477.731 78.744-79.393a.301.301 0 0 1 .368-.046l57.636 34.683" stroke-linecap="round"/><path id="painting5line7" d="M639.77 448.577v29.757a20.126 20.126 0 0 1-29.683-2.79 20.166 20.166 0 0 1-1.863-21.179 20.139 20.139 0 0 1 18.143-11.061 20.124 20.124 0 0 1 10.596 3.123 19.23 19.23 0 0 1 1.958 1.422l.849.728Z"/><path id="painting5line6" d="m516.137 569.636-56.506-.815a28.377 28.377 0 0 1 9.303-18.433 28.331 28.331 0 0 1 38.435.554 28.378 28.378 0 0 1 8.768 18.694Z"/><path id="painting5line5" d="M490.544 608.722a28.385 28.385 0 0 1 3.442-20.327 28.332 28.332 0 0 1 36.813-10.886 28.362 28.362 0 0 1 13.929 15.19" stroke-linecap="round"/><path id="painting5line4" d="M573.163 568.63v1.734l-56.627-.797v-1.006c0-7.524 2.986-14.74 8.303-20.06a28.335 28.335 0 0 1 40.09 0 28.376 28.376 0 0 1 8.303 20.06l-.069.069Z"/><path id="painting5line3" d="M630.657 570.486v.763l-56.212-.798a28.39 28.39 0 0 1 7.618-19.385 28.34 28.34 0 0 1 38.632-2.647 28.38 28.38 0 0 1 10.187 18.165 28.596 28.596 0 0 0-.225 3.902Z"/><path id="painting5line2" d="M280.133 592.977a34.697 34.697 0 0 1-8.583 22.901A34.653 34.653 0 0 1 250 627.416v-68.861a34.65 34.65 0 0 1 21.545 11.532 34.696 34.696 0 0 1 8.588 22.89Z"/><path id="painting5line1" d="M268.679 592.873a23.698 23.698 0 0 1-5.248 14.887A23.67 23.67 0 0 1 250 616.04v-46.334a23.67 23.67 0 0 1 13.431 8.28 23.698 23.698 0 0 1 5.248 14.887Z"/></g></g></g></g></svg>