<svg width="892" height="892" viewBox="0 0 892 892" fill="none" xmlns="http://www.w3.org/2000/svg">
<g id="preloader">
<rect width="892" height="892" fill="white"/>
<path id="background" d="M892 0H0V892H892V0Z" fill="#E8C197"/>
<g id="Group 1">
<path id="innerframe" d="M640 250H250V640H640V250Z" stroke="#D07F2C" stroke-width="2" stroke-miterlimit="10"/>
<path id="outerframe" d="M661 661V230L230 230V661H661Z" stroke="#D07F2C" stroke-width="5" stroke-miterlimit="10"/>
<g id="painting1">
<mask id="mask0_4_2" style="mask-type:alpha" maskUnits="userSpaceOnUse" x="250" y="250" width="390" height="390">
<rect id="painting1frame" x="250" y="250" width="390" height="390" fill="#C4C4C4"/>
</mask>
<g mask="url(#mask0_4_2)">
<path id="painting1line19" d="M452.435 587.874C458.003 578.609 460.156 577.618 464.802 578.917" stroke="#D07F2C" stroke-width="2" stroke-miterlimit="10" stroke-linecap="round"/>
<path id="painting1line18" d="M441.008 569.02C452.742 575.857 454.297 575.857 450.59 582.011L446.884 588.182" stroke="#D07F2C" stroke-width="2" stroke-miterlimit="10" stroke-linecap="round"/>
<path id="painting1line17" d="M451.205 532.251C453.031 537.119 455.872 541.542 459.54 545.225" stroke="#D07F2C" stroke-width="2" stroke-miterlimit="10" stroke-linecap="round"/>
<path id="painting1line16" d="M446.884 559.755C448.582 555.996 451.527 552.94 455.219 551.105" stroke="#D07F2C" stroke-width="2" stroke-miterlimit="10" stroke-linecap="round"/>
<path id="painting1line15" d="M438.548 536.883C444.714 543.994 444.099 549.857 439.47 556.353C438.053 558.336 436.191 561.037 439.334 562.284C444.092 564.428 449.077 566.028 454.194 567.054C460.548 568.028 470.882 568.507 475.904 563.464C480.242 559.139 485.794 557.276 489.569 559.755C493.344 562.233 493.275 567.481 494.198 571.806C495.12 576.13 496.743 584.814 496.743 584.814" stroke="#D07F2C" stroke-width="2" stroke-miterlimit="10" stroke-linecap="round"/>
<path id="painting1line14" d="M431.152 549.55C433.304 554.507 439.487 556.387 439.487 556.387" stroke="#D07F2C" stroke-width="2" stroke-miterlimit="10" stroke-linecap="round"/>
<path id="painting1line13" d="M423.107 543.994C425.891 535.037 433.355 534.729 433.355 534.729" stroke="#D07F2C" stroke-width="2" stroke-miterlimit="10" stroke-linecap="round"/>
<path id="painting1line12" d="M413.832 546.473C421.552 537.499 422.441 531.823 416.462 530.969" stroke="#D07F2C" stroke-width="2" stroke-miterlimit="10" stroke-linecap="round"/>
<path id="painting1line10" d="M402.729 562.849C402.729 557.909 404.881 560.37 411.68 560.678C418.478 560.985 420.938 562.541 423.414 559.139" stroke="#D07F2C" stroke-width="2" stroke-miterlimit="10" stroke-linecap="round"/>
<path id="painting1line9" d="M383.325 529.55L386.093 533.567" stroke="#D07F2C" stroke-width="2" stroke-miterlimit="10" stroke-linecap="round"/>
<path id="painting1line8" d="M379.568 549.242C382.335 542.131 384.504 541.516 380.49 537.191C378.059 534.512 376.451 531.188 375.861 527.618" stroke="#D07F2C" stroke-width="2" stroke-miterlimit="10" stroke-linecap="round"/>
<path id="painting1line7" d="M366.894 546.473C370.908 542.456 371.54 557.276 380.797 555.738C390.055 554.199 393.454 555.122 395.624 560.37C397.793 565.618 399.945 573.037 398.083 577.378" stroke="#D07F2C" stroke-width="2" stroke-miterlimit="10" stroke-linecap="round"/>
<path id="painting1line6" d="M637.302 538.097C637.302 538.097 592.276 532.029 582.096 550.934C582.096 550.934 578.919 558.096 578.202 572.746C577.86 579.84 579.397 596.386 568.278 594.763C567.319 594.675 566.419 594.261 565.728 593.589C565.038 592.917 564.599 592.027 564.486 591.07C564.544 590.127 564.831 589.211 565.323 588.404C568.944 581.259 571.267 574.148 570.755 566.182C570.651 564.662 570.651 563.137 570.755 561.618C570.954 559.17 570.362 556.723 569.068 554.637C567.773 552.551 565.844 550.935 563.563 550.028C560.544 548.867 557.782 547.125 555.433 544.9C545.919 535.909 525.234 577.378 522.86 582.831C522.415 583.663 521.806 584.396 521.069 584.984C520.331 585.572 519.482 586.002 518.572 586.25C517.653 586.376 516.718 586.185 515.921 585.71C515.123 585.235 514.51 584.503 514.182 583.635C513.175 580.968 514.558 578.079 516.454 576.028C520.4 571.789 524.585 568.575 526.361 562.695C527.659 558.455 528.223 554.028 529.777 549.891C530.956 546.832 534.201 544.541 534.902 541.345C535.602 538.148 533.74 535.259 534.27 532.029C535.243 525.926 538.813 520.935 540.521 515.089C541.779 510.707 541.957 506.086 541.041 501.621C540.125 497.156 538.141 492.979 535.26 489.448C533.159 486.918 530.273 484.628 526.993 484.73C522.484 484.867 519.443 489.192 516.301 492.439C512.431 496.184 507.94 499.226 503.029 501.431C499.862 503.182 496.378 504.281 492.78 504.661C490.986 504.828 489.179 504.554 487.515 503.863C485.851 503.172 484.381 502.084 483.232 500.696C482.972 500.371 482.79 499.991 482.702 499.585C482.706 499.122 482.806 498.665 482.998 498.244C483.189 497.823 483.467 497.447 483.813 497.14C491.667 487.717 495.885 476.544 495.035 464.303M637.336 429.928C631.375 433.654 623.671 433.569 616.839 432.116C603.857 429.432 592.721 425.158 579.141 426.987C570.059 428.401 561.166 430.838 552.632 434.252C548.361 435.791 544.108 437.586 539.821 439.209C539.018 439.517 537.276 439.979 535.346 440.526C534.714 440.713 534.046 440.748 533.399 440.626C532.751 440.505 532.141 440.23 531.62 439.826C531.1 439.422 530.682 438.899 530.404 438.301C530.125 437.704 529.992 437.048 530.017 436.389C530.119 433.945 529.863 431.381 529.863 428.953C529.846 427.21 529.367 425.107 527.437 424.885C526.778 424.853 526.125 425.029 525.57 425.388C525.016 425.747 524.588 426.27 524.346 426.885C521.723 432.681 519.996 438.843 519.221 445.158C520.656 431.791 515.754 420.577 503.148 420.201C493.737 419.911 480.243 421.62 469.994 421.278C469.79 421.263 469.586 421.309 469.409 421.411C469.231 421.513 469.088 421.666 468.998 421.85C468.908 422.034 468.875 422.24 468.904 422.443C468.932 422.646 469.02 422.835 469.157 422.987C475.494 430.526 487.28 426.099 495.991 426.543C498.982 426.748 501.871 427.719 504.378 429.363C507.043 430.987 508.802 434.474 507.555 437.329C503.651 437.599 499.94 439.13 496.98 441.691C494.02 444.253 491.971 447.707 491.14 451.534C487.12 453.633 482.684 454.812 478.153 454.987C473.621 455.161 469.108 454.326 464.938 452.543C464.938 452.543 450.641 446.56 448.199 435.808C448.183 435.741 448.144 435.681 448.09 435.638C448.036 435.595 447.969 435.572 447.9 435.572C447.831 435.572 447.764 435.595 447.71 435.638C447.655 435.681 447.617 435.741 447.601 435.808C447.499 446.679 454.522 458.84 465.143 461.739C474.538 464.303 486.016 464.068 490.764 461.739" stroke="#D07F2C" stroke-width="2" stroke-miterlimit="10" stroke-linecap="round"/>
<path id="painting1line5" d="M490.764 461.739C493.497 461.055 494.75 463.164 495.035 464.303" stroke="#D07F2C" stroke-width="2"/>
<path id="painting1line4" d="M382.369 445.996C400.065 439.586 402.576 432.321 402.371 425.295C402.08 415.552 415.352 399.894 426.865 398.424C438.377 396.954 440.529 397.261 442.682 394.595C444.834 391.928 444.116 398.885 444.578 403.142C445.039 407.398 455.492 416.441 457.559 418.218C459.626 419.996 458.157 423.535 453.135 422.646C448.113 421.757 440.154 417.039 438.377 416.441C429.529 428.851 438.668 448.919 438.668 448.919" stroke="#D07F2C" stroke-width="2" stroke-miterlimit="10" stroke-linecap="round"/>
<path id="painting1line3" d="M288.936 553.225C297.033 560.985 313.533 566.182 320.963 565.857C328.393 565.532 327.454 586.25 327.795 590.455L340.077 590.13C339.359 584.404 336.66 578.677 337.139 572.814C337.6 567.396 341.375 563.652 344.774 559.806C349.181 554.849 354.544 549.84 357.994 544.165C362.811 536.234 360.984 525.841 358.797 517.362C358.619 516.811 358.555 516.229 358.609 515.653C358.755 515.103 359.06 514.609 359.485 514.232C359.911 513.855 360.438 513.612 361.001 513.533C366.432 512.559 372.957 516.029 378.184 517.14C388.586 519.311 402.627 523.02 410.023 512.969C410.414 512.516 410.679 511.967 410.792 511.379C411.065 508.764 405.787 507.209 403.959 506.166C396.883 501.83 390.43 496.551 384.777 490.474C380.712 486.2 375.844 482.081 373.35 476.611C370.651 470.696 373.999 465.055 376.647 459.859C383.701 446.03 383.855 432.355 382.745 417.21C382.745 416.629 382.523 415.894 381.942 415.825C381.692 415.833 381.45 415.91 381.242 416.048C376.698 418.817 377.005 424.594 376.903 429.193C376.806 436.573 375.175 443.606 372.906 450.628C371.198 454.047 366.074 462.594 363.512 460.884C363.512 460.884 356.679 455.756 343.868 462.013C341.614 440.97 366.894 427.688 366.894 427.688C370.788 423.483 370.139 418.936 364.639 421.21C359.139 423.483 334.542 440.286 334.542 459.09C324.106 451.312 321.612 454.508 325.814 460.064C330.016 465.619 334.884 472.765 327.761 470.748C320.638 468.73 319.357 460.303 307.708 457.073C296.059 453.842 286.357 467.431 250.777 471.329" stroke="#D07F2C" stroke-width="2" stroke-miterlimit="10" stroke-linecap="round"/>
<path id="painting1line2" d="M250.982 427.586C359.668 443.124 387.493 360.253 423.722 369.963C459.95 379.672 490.764 361.741 496.828 358.322" stroke="#D07F2C" stroke-width="2" stroke-miterlimit="10" stroke-linecap="round"/>
<path id="painting1line1" d="M259.062 604.762C388.142 566.9 381.207 615.873 475.152 622.455C564.691 628.745 625.926 606.267 639.044 598.677" stroke="#D07F2C" stroke-width="2" stroke-miterlimit="10" stroke-linecap="round"/>
</g>
</g>
<g id="painting2">
<mask id="mask1_4_2" style="mask-type:alpha" maskUnits="userSpaceOnUse" x="250" y="250" width="390" height="390">
<rect id="painting2frame" x="250" y="250" width="390" height="390" fill="#C4C4C4"/>
</mask>
<g mask="url(#mask1_4_2)">
<path id="painting2line24" d="M535.002 556.516C600.149 570.926 639.742 595.472 640.391 606.293C640.648 610.31 640.699 624.412 640.682 640.48" stroke="#D07F2C" stroke-width="2" stroke-miterlimit="10"/>
<path id="painting2line23" d="M472.657 414.905C475.219 409.777 477.849 402.057 473.613 398.296C472.661 397.536 471.564 396.978 470.39 396.655C469.215 396.332 467.988 396.25 466.781 396.416C456.857 397.168 451.528 406.364 452.211 415.612C452.689 422.09 454.602 432.227 460.102 436.518C464.116 439.663 468.899 446.774 471.615 451.287C472.605 452.996 473.323 454.261 473.647 454.962C474.604 457.047 476.363 461.098 480.343 461.936C481.42 462.151 482.529 462.151 483.606 461.936C484.887 465.15 486.356 468.261 487.79 471.423C490.011 476.346 494.418 480.209 495.374 485.696C495.853 488.414 495.016 491.389 495.101 494.141C495.204 497.559 497.219 498.158 499.918 499.918C508.305 505.371 516.23 511.884 525.368 515.969C533.831 519.48 542.807 521.593 551.946 522.226C557.361 522.773 564.074 523.935 569.027 521.166C575.518 517.405 575.689 508.209 573.759 501.799C573.297 500.312 572.051 498.192 572.409 496.671C573.075 493.662 575.962 493.953 577.756 492.192C579.857 490.124 579.173 488.141 579.19 485.713C579.207 483.286 581.667 481.799 581.172 479.081C580.647 477.324 579.845 475.662 578.798 474.158C578.437 473.619 578.205 473.004 578.119 472.361C578.033 471.718 578.096 471.064 578.302 470.449C579.464 467.833 584.263 467.372 586.655 467.03C595.554 465.56 592.684 456.363 590.156 450.552C585.254 439.321 579.908 428.33 574.784 417.116C571.043 409.014 570.565 399.903 568.549 391.305" stroke="#D07F2C" stroke-width="2" stroke-miterlimit="10" stroke-linecap="round"/>
<path id="painting2line22" d="M569.403 389.937C569.648 389.4 569.782 388.818 569.796 388.228C570.084 385.181 570.004 382.11 569.557 379.083C569.249 376.929 568.891 373.954 566.909 372.587C565.814 372.068 564.595 371.867 563.391 372.006C561.973 372.006 560.555 371.801 559.138 371.715C556.251 371.544 553.364 371.39 550.46 371.254C544.602 370.997 538.726 370.809 532.85 370.724C519.817 370.553 506.409 370.177 494.401 375.852C490.301 377.766 488.252 381.818 486.868 385.903C483.162 396.809 480.753 408.125 477.969 419.338C477.969 419.338 477.183 422.757 478.379 423.219C478.379 423.219 477.474 423.321 483.845 423.321C490.216 423.321 490.318 418.74 490.318 418.74C491.514 411.27 494.708 403.595 500.277 395.031C505.657 386.758 519.288 388.946 526.752 388.655C534.216 388.364 563.801 391.339 566.038 391.544C569.369 391.39 569.403 389.937 569.403 389.937Z" stroke="#D07F2C" stroke-width="2" stroke-miterlimit="10"/>
<path id="painting2line21" d="M523.148 419.27C527.871 423.45 533.681 426.206 539.904 427.219C542.736 427.579 545.596 427.664 548.445 427.475C549.606 427.372 550.734 427.372 551.861 427.372C555.441 427.533 559.018 427.004 562.4 425.817C565.526 424.484 560.914 419.526 553.859 416.108C551.098 414.777 548.167 413.834 545.148 413.304C543.174 413.014 541.167 413.049 539.204 413.407C534.182 414.227 528.785 416.672 522.567 418.809C512.701 422.523 496.57 421.742 489.738 420.888" stroke="#D07F2C" stroke-width="2" stroke-miterlimit="10" stroke-linecap="round"/>
<path id="painting2line20" d="M492.881 640.081H429.1C429.22 627.158 429.425 613.346 429.749 598.902C429.749 598.902 458.975 615.004 464.321 599.124C466.029 599.227 468.762 535.604 470.453 485.16C470.863 472.835 471.205 461.229 471.478 451.656C472.469 453.366 473.186 454.631 473.511 455.314C474.467 457.4 476.21 461.417 480.207 462.254C483.811 477.998 490.95 511.826 491.275 533.245L492.556 618.269V618.901L492.881 640.081Z" stroke="#D07F2C" stroke-width="2" stroke-miterlimit="10"/>
<path id="painting2line19" d="M581.377 477.337H577.158C572.939 477.337 565.662 483.149 555.909 484.175C570.752 483.594 575.621 486.671 579.225 485.645" stroke="#D07F2C" stroke-width="2" stroke-miterlimit="10" stroke-linecap="round"/>
<path id="painting2line18" d="M576.663 493.047C567.353 492.465 562.246 484.175 562.246 484.175" stroke="#D07F2C" stroke-width="2" stroke-miterlimit="10"/>
<path id="painting2line17" d="M551.998 427.219C554.731 425.988 556.866 423.424 557.122 418.33" stroke="#D07F2C" stroke-width="2" stroke-miterlimit="10"/>
<path id="painting2line16" d="M534.319 414.962C534.455 419.851 536.146 425.048 539.341 427.099" stroke="#D07F2C" stroke-width="2" stroke-miterlimit="10"/>
<path id="painting2line15" d="M470.641 484.944C435.642 469.56 441.091 414.723 472.042 307.904" stroke="#D07F2C" stroke-width="2" stroke-miterlimit="10"/>
<path id="painting2line14" d="M405.495 402.775C411.524 362.399 417.81 321.186 419.159 312.263" stroke="#D07F2C" stroke-width="2" stroke-miterlimit="10"/>
<path id="painting2line13" d="M419.176 312.263C419.279 311.665 419.347 311.203 419.398 310.913V310.742V310.485C441.604 305.904 472.11 307.545 472.11 307.545L471.991 307.904" stroke="#D07F2C" stroke-width="2" stroke-miterlimit="10"/>
<path id="painting2line12" d="M473.255 307.785C507.929 308.417 536.454 316.331 546.463 329.494C565.44 354.707 566.96 372.604 566.96 372.604" stroke="#D07F2C" stroke-width="2" stroke-miterlimit="10"/>
<path id="painting2line11" d="M419.313 312.263L419.518 310.913V310.742V310.485C419.518 310.485 399.465 312.673 383.785 321.408C382.674 322.007 381.598 322.656 380.539 323.323C375.327 326.421 370.984 330.79 367.916 336.023C367.677 336.468 367.455 336.912 367.233 337.374C360.486 351.664 360.674 366.604 367.233 378.57C373.809 390.655 386.825 399.886 405.614 402.775" stroke="#D07F2C" stroke-width="2" stroke-miterlimit="10"/>
<path id="painting2line10" d="M382.128 320.034C383.836 305.949 369.368 304.913 369.368 304.913L365.115 305.579L358.283 291.904C451.237 244.042 566.465 291.255 566.465 291.255L563.186 303.374C562.537 310.212 545.182 311.22 543.543 318.759L541.834 324.308" stroke="#D07F2C" stroke-width="2" stroke-miterlimit="10" stroke-linecap="round"/>
<path id="painting2line9" d="M367.763 336.006L334.113 323.596C324.616 344.228 335.412 389.1 348.513 396.313L365.986 379.715" stroke="#D07F2C" stroke-width="2" stroke-miterlimit="10" stroke-linecap="round"/>
<path id="painting2line8" d="M367.421 378.296L367.131 378.587" stroke="#D07F2C" stroke-width="2" stroke-miterlimit="10"/>
<path id="painting2line7" d="M402.557 559.917C383.546 560.96 345.165 570.174 323.796 580.43C321.644 581.455 319.68 582.481 317.921 583.507C306.784 589.985 298.995 612.105 295.51 640.549H275.372C282.529 503.166 320.722 423.937 365.901 379.715L367.114 378.57C373.69 390.655 386.671 399.886 405.495 402.775C401.6 428.843 397.825 454.552 395.553 470.996C392.189 495.286 391.334 531.354 402.557 559.917Z" stroke="#D07F2C" stroke-width="2" stroke-miterlimit="10"/>
<path id="painting2line6" d="M367.114 378.553L365.901 379.715" stroke="#D07F2C" stroke-width="2" stroke-miterlimit="10"/>
<path id="painting2line5" d="M403.462 559.883H402.557" stroke="#D07F2C" stroke-width="2" stroke-miterlimit="10"/>
<path id="painting2line4" d="M541.988 521.576C526.94 544.174 542.859 570.584 520.278 596.789C497.697 622.993 491.804 619.01 491.804 619.01" stroke="#D07F2C" stroke-width="2" stroke-miterlimit="10"/>
<path id="painting2line3" d="M323.865 580.379C326.243 601.18 331.857 621.482 340.502 640.549" stroke="#D07F2C" stroke-width="2" stroke-miterlimit="10"/>
<path id="painting2line2" d="M613.506 640.549C621.773 626.714 627.965 611.74 631.885 596.105" stroke="#D07F2C" stroke-width="2" stroke-miterlimit="10"/>
<path id="painting2line1" d="M491.446 414.905C502.823 413.001 512.87 408.696 522.209 401.92C533.226 394.193 555.004 392.364 563.203 405.339" stroke="#D07F2C" stroke-width="2" stroke-miterlimit="10" stroke-linecap="round"/>
</g>
</g>
<g id="painting3">
<mask id="mask2_4_2" style="mask-type:alpha" maskUnits="userSpaceOnUse" x="250" y="250" width="390" height="390">
<rect id="painting3frame" x="250" y="250" width="390" height="390" fill="#C4C4C4"/>
</mask>
<g mask="url(#mask2_4_2)">
<path id="painting3line19" d="M448.326 319.938C441.989 314.981 414.164 305.015 394.18 307.135C386.798 307.867 379.528 309.468 372.521 311.904C367.301 313.589 362.486 316.336 358.378 319.972C354.166 324.113 351.115 329.288 349.53 334.98C349.257 335.852 349.018 336.69 348.778 337.63C345.157 352.108 346.097 367.458 347.07 382.21C348.01 396.313 345.653 405.475 348.471 421.218C351.887 439.919 357.251 455.406 368.626 470.79C373.187 476.91 378.363 483.491 385.571 486.585C389.187 488.164 393.123 488.872 397.063 488.652C401.002 488.433 404.835 487.291 408.254 485.32C415.583 481.665 423.234 478.695 431.109 476.448C441.357 473.183 451.349 468.192 455.022 457.44C459.463 444.551 454.099 430.62 458.745 417.782C461.12 411.236 465.253 405.509 468.157 399.202C473.008 388.706 466.791 380.398 468.055 369.817C468.84 363.202 469.763 358.279 467.815 351.715C464.69 340.826 458.148 325.22 448.002 319.647C473.23 333.51 477.227 359.698 478.747 385.219" stroke="#D07F2C" stroke-width="2" stroke-miterlimit="10" stroke-linecap="round"/>
<path id="painting3line18" d="M354.33 381.322C358.412 377.561 363.827 374.245 369.463 373.817C373.648 373.493 377.97 373.698 381.42 376.758C384.87 379.817 385.964 384.706 385.724 389.15C385.724 395.916 385.571 401.766 380.447 417.15" stroke="#D07F2C" stroke-width="2" stroke-miterlimit="10" stroke-linecap="round"/>
<path id="painting3line17" d="M376.569 451.474C379.456 451.167 380.72 452.5 384.324 452.414C387.928 452.329 387.057 455.303 391.754 454.602C396.451 453.902 394.726 453.201 399.423 453.355C404.121 453.508 412.337 453.594 415.924 450.295" stroke="#D07F2C" stroke-width="2" stroke-miterlimit="10" stroke-linecap="round"/>
<path id="painting3line16" d="M388.458 449.355C390.477 450.002 392.656 449.948 394.641 449.201" stroke="#D07F2C" stroke-width="2" stroke-miterlimit="10" stroke-linecap="round"/>
<path id="painting3line15" d="M408.254 457.201C407.776 458.175 406.939 459.406 402.156 461.594C398.964 462.934 395.555 463.681 392.096 463.799C390.635 463.954 389.161 463.677 387.855 463.003C386.55 462.328 385.471 461.286 384.751 460.004" stroke="#D07F2C" stroke-width="2" stroke-miterlimit="10" stroke-linecap="round"/>
<path id="painting3line14" d="M408.34 424.996C409.31 426.92 409.891 429.017 410.048 431.167C410.143 431.987 409.952 432.815 409.507 433.51C409.062 434.205 408.39 434.724 407.605 434.979C405.983 435.476 404.231 435.322 402.72 434.551C401.566 433.908 400.237 433.651 398.927 433.821C397.617 433.99 396.396 434.576 395.444 435.492C392.933 437.68 391.378 439.406 386.903 437.987C382.428 436.569 382.667 434.073 378.363 432.671C376.142 431.953 378.516 427.184 378.585 426.552" stroke="#D07F2C" stroke-width="2" stroke-miterlimit="10" stroke-linecap="round"/>
<path id="painting3line13" d="M381.608 484.551C391.327 490.414 405.521 495.969 416.983 495.405C428.444 494.841 439.786 490.055 449.949 484.636C459.685 479.508 474.05 464.517 478.457 453.782" stroke="#D07F2C" stroke-width="2" stroke-miterlimit="10" stroke-linecap="round"/>
<path id="painting3line12" d="M406.529 639.625C393.16 637.891 379.961 635.032 367.072 631.078C351.272 626.377 329.75 619.027 328.367 599.54C327.581 588.583 359.112 536.293 396.691 526.396C401.217 525.2 400.295 524.037 399.509 520.294C399.509 520.294 397.288 511.337 395.973 501.986C395.464 498.548 395.151 495.084 395.034 491.61" stroke="#D07F2C" stroke-width="2" stroke-miterlimit="10" stroke-linecap="round"/>
<path id="painting3line11" d="M266.858 639.625C269.83 630.942 272.068 624.104 273.076 621.267C276.953 610.344 292.634 588.019 323.618 563.695M323.225 564.156C356.798 538.516 388.604 527.405 400.09 524.841" stroke="#D07F2C" stroke-width="2"/>
<path id="painting3line10" d="M634.5 639C624.849 615.394 613.328 594.823 590.303 580.908L588.595 579.883C580.618 575.301 572.009 571.985 562.649 572.071C552.751 572.436 542.964 574.279 533.611 577.541C513.217 583.985 494.496 595.216 477.842 608.549C467.566 617.479 458.165 632.816 454.749 639.369" stroke="#D07F2C" stroke-width="2" stroke-miterlimit="10" stroke-linecap="round"/>
<path id="painting3line9" d="M395.819 501.918C410.611 508.26 423.149 547.353 440.349 536.909C461.325 524.225 471.215 537.353 479.311 533.729" stroke="#D07F2C" stroke-width="2" stroke-miterlimit="10" stroke-linecap="round"/>
<path id="painting3line8" d="M323.738 563.609C323.618 541.969 336.958 541.9 336.839 520.242C336.719 498.585 323.413 498.67 323.294 477.012C323.174 455.355 336.514 455.303 336.395 433.645C336.275 411.988 322.969 412.073 322.85 390.415C322.704 384.32 324.184 378.296 327.137 372.963C329.562 368.689 332.569 364.792 334.191 360.091C335.66 355.801 335.489 351.202 336.326 346.792C337.183 342.248 338.376 337.774 339.896 333.408C340.819 330.741 341.832 328.097 342.937 325.476C345.541 319.285 348.805 313.394 352.673 307.904C359.247 298.568 367.804 290.804 377.731 285.169C382.205 282.651 386.898 280.545 391.754 278.879C396.371 277.3 401.098 276.066 405.897 275.186C409.853 274.468 413.844 273.954 417.854 273.648C418.981 273.648 420.091 273.562 421.27 273.562C424.105 273.562 426.924 273.562 429.81 273.802C457.328 275.716 484.469 288.554 501.55 310.861C521.33 336.758 522.56 371.886 519.007 403.048C517.692 414.466 527.069 424.808 528.265 434.945C529.648 446.466 524.746 458.278 526.95 468.141C529.495 479.611 539.077 488.123 542.322 497.525C546.336 508.824 544.543 521.456 549.155 530.003C555.099 541.148 566.936 546.345 572.624 553.404C585.571 569.472 576.579 572.761 590.5 581" stroke="#D07F2C" stroke-width="2" stroke-miterlimit="10" stroke-linecap="round"/>
<path id="painting3line7" d="M478.85 384.911C480.131 406.364 465.8 407.27 467.081 428.74C468.362 450.209 482.881 449.338 484.162 470.807C485.443 492.277 470.924 493.132 472.205 514.601C473.486 536.071 488.005 535.114 489.286 556.652C490.567 578.19 476.065 578.994 477.329 600.446C477.458 602.969 477.841 605.471 478.474 607.916" stroke="#D07F2C" stroke-width="2" stroke-miterlimit="10" stroke-linecap="round"/>
<path id="painting3line6" d="M393.001 307.374C393.94 289.272 406.854 274.896 406.854 274.896" stroke="#D07F2C" stroke-width="2" stroke-miterlimit="10"/>
<path id="painting3line5" d="M442.468 388.193C447.062 387.236 454.51 380.364 452.477 378.638C450.444 376.911 446.328 377.527 444.09 377.304C434.354 376.347 425.301 371.937 415.599 371.629C411.923 371.367 408.266 372.354 405.219 374.429C402.172 376.504 399.914 379.547 398.809 383.065C396.486 391.099 396.913 400.159 397.101 408.381V408.757" stroke="#D07F2C" stroke-width="2" stroke-miterlimit="10" stroke-linecap="round"/>
<path id="painting3line4" d="M407.861 391.133C405.982 390.364 404.445 388.005 408.34 386.603C412.234 385.202 421.321 380.638 427.744 382.364C434.166 384.091 437.599 387.492 436.506 388.484C435.251 389.308 433.881 389.942 432.441 390.364" stroke="#D07F2C" stroke-width="2" stroke-miterlimit="10" stroke-linecap="round"/>
<path id="painting3line3" d="M423.61 391.68C426.195 391.68 428.29 389.583 428.29 386.997C428.29 384.41 426.195 382.313 423.61 382.313C421.025 382.313 418.93 384.41 418.93 386.997C418.93 389.583 421.025 391.68 423.61 391.68Z" stroke="#D07F2C" stroke-width="2" stroke-miterlimit="10"/>
<path id="painting3line2" d="M371.787 390.569C373.975 390.569 375.749 388.794 375.749 386.603C375.749 384.413 373.975 382.638 371.787 382.638C369.598 382.638 367.824 384.413 367.824 386.603C367.824 388.794 369.598 390.569 371.787 390.569Z" stroke="#D07F2C" stroke-width="2" stroke-miterlimit="10"/>
<path id="painting3line1" d="M358.566 386.911C368.422 379.236 376.176 381.903 379.456 385.492C381.301 387.511 381.574 389.834 379.456 390.655" stroke="#D07F2C" stroke-width="2" stroke-miterlimit="10" stroke-linecap="round"/>
</g>
</g>
<g id="painting4">
<mask id="mask3_4_2" style="mask-type:alpha" maskUnits="userSpaceOnUse" x="250" y="250" width="390" height="390">
<rect id="painting4frame" x="250" y="250" width="390" height="390" fill="#C4C4C4"/>
</mask>
<g mask="url(#mask3_4_2)">
<path id="painting4line49" d="M281.377 638.514C243.992 605.015 276.53 576.005 277.597 533.355C277.8 525.307 275.023 517.614 272.652 509.921C266.717 490.442 267.607 469.518 275.175 450.615C276.142 448.534 276.875 446.351 277.359 444.108C277.368 443.944 277.368 443.78 277.359 443.617C277.834 439.94 276.614 436.28 275.666 432.721C271.072 416.729 269.963 399.951 272.397 383.521C272.451 383.155 273.058 383.201 273.077 383.571C273.297 387.828 274.058 392.046 275.345 396.121C276.129 398.539 277.091 400.895 278.223 403.17C278.756 404.268 280.275 407.992 281.853 409.894C282.006 410.079 282.293 409.994 282.337 409.757C283.882 401.587 284.774 393.109 284.742 384.802C284.729 384.002 284.896 383.209 285.229 382.482C285.561 381.754 286.053 381.111 286.666 380.597C287.279 380.084 288 379.715 288.774 379.516C289.387 379.358 290.022 379.311 290.65 379.374C290.875 379.397 291.063 379.184 290.998 378.967C280.147 342.438 286.893 311.218 292.417 277.857C292.462 277.584 292.821 277.513 292.962 277.751C298.244 286.613 300.271 297.052 298.677 307.264C297.119 319.277 291.21 325.055 293.682 345.169C295.087 356.471 303.502 365.807 305.991 376.94C309.16 391.133 302.917 407.203 309.745 419.97C309.843 420.155 310.098 420.181 310.233 420.021L314.91 414.497C315.096 414.277 315.455 414.423 315.439 414.711C313.983 440.949 315.537 463.59 322.373 488.943C322.445 489.211 322.812 489.247 322.932 488.996L327.566 479.304C327.677 479.071 328.009 479.078 328.109 479.315C331.676 487.784 333.523 496.88 333.539 506.074C333.539 514.976 332.103 524.694 339.6 529.117C339.792 529.23 340.034 529.089 340.043 528.866C340.744 511.579 345.565 504.488 346.684 503.065C346.801 502.916 347.019 502.932 347.13 503.085C352.074 509.906 358.848 515.249 364.355 521.579C375.254 534.04 381.493 549.889 382.026 566.421C382.035 566.71 382.421 566.832 382.608 566.611C386.416 562.125 392.675 562.357 394.702 562.567C394.959 562.593 395.042 562.91 394.851 563.083C390.798 566.765 390.361 573.201 392.429 578.462C392.753 579.299 393.143 580.11 393.597 580.885C396.983 586.629 402.808 590.442 408.277 594.254C413.746 598.067 419.316 602.388 421.822 608.572C425.632 618.044 419.899 629.296 415.463 638.514" stroke="#D07F2C" stroke-width="2" stroke-miterlimit="10" stroke-linecap="round"/>
<path id="painting4line48" d="M369.418 527.645C383.59 528.069 392.615 512.801 405.517 512.801C409.365 512.838 413.168 513.635 416.707 515.148C420.246 516.66 423.452 518.857 426.14 521.613" stroke="#D07F2C" stroke-width="2" stroke-miterlimit="10" stroke-linecap="round"/>
<path id="painting4line47" d="M471.06 502.55C482.506 496.772 493.072 491.926 501.131 491.299C523.701 489.604 533.945 495.094 539.313 500.906" stroke="#D07F2C" stroke-width="2" stroke-miterlimit="10" stroke-linecap="round"/>
<path id="painting4line46" d="M409.377 523.561C423.532 525.493 440.938 517.783 457.616 509.396" stroke="#D07F2C" stroke-width="2" stroke-miterlimit="10" stroke-linecap="round"/>
<path id="painting4line45" d="M382.422 435.178C384.791 437.929 386.594 441.121 387.727 444.57C388.861 448.02 389.302 451.659 389.027 455.28C388.752 458.901 387.765 462.432 386.123 465.67C384.481 468.909 382.216 471.791 379.459 474.151C377.263 476.045 374.716 477.486 371.963 478.392C369.209 479.298 366.304 479.651 363.414 479.431C360.524 479.21 357.706 478.421 355.122 477.108C352.538 475.794 350.238 473.983 348.355 471.779C345.309 468.226 343.798 463.608 344.153 458.94C344.509 454.272 346.702 449.937 350.251 446.887C353.094 444.447 356.789 443.237 360.523 443.523C364.257 443.809 367.725 445.567 370.163 448.412C372.106 450.689 373.069 453.643 372.84 456.628C372.612 459.613 371.211 462.386 368.944 464.34C367.126 465.898 364.765 466.672 362.378 466.491C359.991 466.31 357.774 465.189 356.211 463.374C354.969 461.922 354.354 460.036 354.5 458.13C354.646 456.224 355.542 454.453 356.99 453.207C357.566 452.713 358.233 452.337 358.954 452.101C359.675 451.865 360.436 451.774 361.192 451.832C361.948 451.89 362.686 452.097 363.362 452.441C364.039 452.784 364.641 453.258 365.134 453.834" stroke="#D07F2C" stroke-width="2" stroke-miterlimit="10" stroke-linecap="round"/>
<path id="painting4line44" d="M361.5 370C367.443 365.476 378.913 357.126 385.5 353.5C397.894 346.637 409.682 343.593 423.837 346.168C430.645 347.216 436.985 350.279 442.039 354.963C444.545 357.323 446.464 360.239 447.64 363.476C448.816 366.713 449.217 370.181 448.812 373.602C447.779 380.38 442.31 386.497 435.52 387.361H434.521" stroke="#D07F2C" stroke-width="2" stroke-miterlimit="10" stroke-linecap="round"/>
<path id="painting4line43" d="M338.653 372.67C340.012 371.086 341.67 369.786 343.532 368.844C345.394 367.902 347.422 367.336 349.503 367.178C351.583 367.021 353.674 367.275 355.656 367.927C357.638 368.578 359.472 369.614 361.054 370.975C363.601 373.185 365.168 376.316 365.409 379.681C365.65 383.046 364.547 386.369 362.341 388.92C361.467 389.931 360.404 390.76 359.21 391.359C358.016 391.958 356.716 392.316 355.384 392.412C354.052 392.508 352.714 392.34 351.447 391.918C350.18 391.496 349.008 390.829 347.999 389.953C346.371 388.537 345.37 386.531 345.218 384.377C345.066 382.223 345.774 380.097 347.187 378.465C347.746 377.818 348.426 377.288 349.19 376.904C349.954 376.521 350.786 376.292 351.638 376.231C352.491 376.169 353.347 376.277 354.157 376.546C354.968 376.816 355.718 377.244 356.364 377.804C357.406 378.71 358.047 379.994 358.146 381.372C358.244 382.751 357.792 384.112 356.889 385.158" stroke="#D07F2C" stroke-width="2" stroke-miterlimit="10" stroke-linecap="round"/>
<path id="painting4line42" d="M345.431 387.236C321.5 392.5 327 398.5 306.5 403.5" stroke="#D07F2C" stroke-width="2" stroke-linecap="round"/>
<path id="painting4line41" d="M358.988 492.807C402.181 488.622 405.398 468.932 438.28 474.168C471.162 479.404 476.953 455.783 504.67 461.256C532.388 466.729 560.122 462.561 572.398 440.617C581.863 423.673 618.232 409.236 637.873 402.509" stroke="#D07F2C" stroke-width="2" stroke-miterlimit="10" stroke-linecap="round"/>
<path id="painting4line40" d="M320.095 311.839C323.966 314.741 326.527 319.063 327.216 323.854C327.905 328.645 326.665 333.514 323.77 337.391C321.448 340.491 317.992 342.543 314.161 343.096C310.329 343.649 306.435 342.657 303.333 340.339C302.106 339.42 301.072 338.267 300.291 336.947C299.509 335.628 298.995 334.167 298.778 332.648C298.561 331.13 298.646 329.583 299.026 328.097C299.407 326.611 300.076 325.215 300.996 323.988C301.731 322.997 302.654 322.162 303.713 321.531C304.772 320.899 305.945 320.484 307.166 320.309C308.386 320.135 309.628 320.203 310.822 320.512C312.015 320.82 313.136 321.363 314.118 322.107C315.703 323.294 316.752 325.062 317.034 327.022C317.317 328.983 316.81 330.975 315.625 332.562C315.153 333.202 314.558 333.742 313.875 334.151C313.192 334.56 312.435 334.828 311.647 334.942C310.86 335.055 310.057 335.011 309.287 334.812C308.517 334.613 307.794 334.263 307.159 333.782" stroke="#D07F2C" stroke-width="2" stroke-miterlimit="10" stroke-linecap="round"/>
<path id="painting4line40_2" d="M462.78 310.076C461.595 307.034 461.021 303.787 461.09 300.522C461.159 297.257 461.87 294.037 463.183 291.047C464.496 288.057 466.385 285.356 468.742 283.097C471.099 280.838 473.877 279.066 476.919 277.882C481.834 275.967 487.308 276.083 492.137 278.206C496.966 280.328 500.755 284.283 502.672 289.201C504.197 293.137 504.098 297.519 502.396 301.383C500.694 305.247 497.529 308.276 493.596 309.805C492.039 310.413 490.377 310.708 488.706 310.672C487.035 310.636 485.387 310.271 483.856 309.598C482.326 308.924 480.944 307.955 479.788 306.746C478.633 305.538 477.727 304.113 477.122 302.553C476.635 301.307 476.398 299.977 476.426 298.64C476.454 297.302 476.745 295.983 477.283 294.759C477.821 293.534 478.595 292.428 479.561 291.503C480.527 290.578 481.666 289.853 482.912 289.37C483.91 288.981 484.974 288.793 486.044 288.816C487.114 288.839 488.169 289.072 489.148 289.504C490.128 289.935 491.013 290.555 491.753 291.329C492.493 292.102 493.073 293.015 493.461 294.013C493.776 294.813 493.929 295.667 493.913 296.526C493.897 297.385 493.711 298.233 493.367 299.02C493.022 299.808 492.525 300.519 491.905 301.114C491.285 301.708 490.554 302.174 489.753 302.485C489.114 302.737 488.431 302.86 487.745 302.848C487.058 302.835 486.38 302.686 485.751 302.411C485.122 302.135 484.553 301.738 484.077 301.242C483.602 300.746 483.229 300.161 482.98 299.52" stroke="#D07F2C" stroke-width="2" stroke-miterlimit="10" stroke-linecap="round"/>
<path id="painting4line39" d="M508.632 325.123C513.965 323.948 519.545 324.941 524.146 327.884C528.747 330.826 531.992 335.477 533.166 340.814C534.11 345.074 533.326 349.535 530.986 353.217C528.647 356.899 524.943 359.501 520.688 360.453C517.277 361.204 513.708 360.57 510.765 358.689C507.821 356.808 505.745 353.834 504.992 350.421C504.692 349.068 504.663 347.67 504.904 346.305C505.146 344.941 505.654 343.637 506.399 342.469C507.145 341.301 508.113 340.292 509.248 339.499C510.384 338.706 511.665 338.145 513.017 337.848C515.201 337.374 517.484 337.782 519.369 338.985C521.253 340.188 522.585 342.088 523.075 344.27C523.455 346.011 523.135 347.831 522.185 349.337C521.234 350.844 519.729 351.915 517.995 352.319C516.597 352.627 515.133 352.366 513.926 351.594C512.72 350.821 511.869 349.601 511.561 348.202" stroke="#D07F2C" stroke-width="2" stroke-miterlimit="10" stroke-linecap="round"/>
<path id="painting4line38" d="M387.5 270.488C389.376 270.073 391.315 270.033 393.206 270.369C395.098 270.705 396.905 271.411 398.524 272.446C400.143 273.481 401.542 274.826 402.642 276.403C403.742 277.98 404.521 279.758 404.934 281.637C405.269 283.137 405.304 284.689 405.036 286.203C404.769 287.717 404.205 289.163 403.377 290.458C402.549 291.753 401.473 292.871 400.211 293.747C398.95 294.624 397.527 295.241 396.026 295.565C394.828 295.829 393.589 295.855 392.381 295.641C391.173 295.426 390.019 294.975 388.984 294.314C387.95 293.652 387.057 292.793 386.354 291.786C385.652 290.778 385.154 289.642 384.891 288.442C384.466 286.503 384.827 284.474 385.896 282.801C386.965 281.128 388.654 279.949 390.591 279.523C392.141 279.182 393.762 279.47 395.099 280.325C396.436 281.18 397.379 282.532 397.721 284.083C397.993 285.323 397.763 286.62 397.08 287.69C396.398 288.761 395.319 289.516 394.081 289.79C393.09 290.009 392.052 289.825 391.196 289.279C390.339 288.733 389.733 287.87 389.511 286.878" stroke="#D07F2C" stroke-width="2" stroke-miterlimit="10" stroke-linecap="round"/>
<path id="painting4line37" d="M361.645 282.815C362.962 282.764 364.218 282.191 365.138 281.222C366.059 280.252 366.569 278.965 366.558 277.64C366.55 276.819 366.382 276.012 366.062 275.264C365.742 274.516 365.277 273.842 364.694 273.281C364.111 272.72 363.421 272.283 362.664 271.995C361.907 271.706 361.097 271.572 360.28 271.6C359.26 271.634 358.252 271.87 357.314 272.295C356.375 272.719 355.525 273.324 354.811 274.075C354.098 274.825 353.535 275.706 353.156 276.667C352.776 277.629 352.587 278.652 352.599 279.677C352.613 280.961 352.878 282.223 353.379 283.391C353.88 284.56 354.608 285.612 355.52 286.489C356.432 287.365 357.511 288.047 358.696 288.497C359.88 288.947 361.146 289.156 362.423 289.111C364.016 289.055 365.591 288.684 367.056 288.018C368.522 287.352 369.849 286.405 370.962 285.231C372.075 284.057 372.953 282.68 373.544 281.177C374.135 279.674 374.429 278.075 374.408 276.473C374.357 272.428 372.711 268.607 369.832 265.85C366.953 263.092 363.077 261.623 359.054 261.767C354.026 261.948 349.227 264.128 345.713 267.829C342.198 271.531 341.164 275.598 338.598 282.109C336.033 288.621 325.218 287.292 318.955 286.383" stroke="#D07F2C" stroke-width="2" stroke-miterlimit="10" stroke-linecap="round"/>
<path id="painting4line36" d="M312.24 285.73C309.119 285.642 306.159 284.324 304.003 282.064C301.847 279.803 300.67 276.783 300.726 273.659C300.789 271.156 301.841 268.781 303.651 267.053C305.462 265.325 307.883 264.387 310.384 264.443C312.385 264.491 314.285 265.333 315.667 266.783C317.048 268.232 317.798 270.172 317.751 272.175C317.703 273.766 317.029 275.275 315.877 276.373C314.724 277.471 313.186 278.07 311.594 278.04C310.32 278.009 309.109 277.472 308.23 276.547C307.351 275.623 306.874 274.387 306.906 273.111" stroke="#D07F2C" stroke-width="2" stroke-miterlimit="10" stroke-linecap="round"/>
<path id="painting4line35" d="M601.644 345.356C605.217 341.535 609.101 333.677 607.623 335.1C604.206 338.389 600.36 341.988 591.808 342.189C588.543 342.023 585.392 340.933 582.723 339.044C580.053 337.156 577.975 334.548 576.729 331.523C575.484 328.498 575.122 325.182 575.688 321.959C576.253 318.737 577.721 315.742 579.921 313.323C582.121 310.903 584.963 309.159 588.116 308.293C590.86 307.54 593.742 307.479 596.504 308.107C596.726 308.157 596.864 307.855 596.671 307.734C592.816 305.328 588.353 304.05 583.793 304.061C579.145 304.061 574.592 305.386 570.669 307.879C566.745 310.373 563.611 313.933 561.635 318.143C559.658 322.353 558.919 327.039 559.506 331.653C560.092 336.268 561.979 340.62 564.945 344.201C567.912 347.782 571.836 350.444 576.258 351.876C580.681 353.307 585.419 353.449 589.92 352.285C594.42 351.122 598.469 348.753 601.644 345.356Z" stroke="#D07F2C" stroke-width="2" stroke-miterlimit="10"/>
<path id="painting4line34" d="M306.999 258.178C288.209 257.219 292.48 288.058 258.318 282.969" stroke="#D07F2C" stroke-width="2" stroke-linecap="round"/>
<path id="painting4line33" d="M515.083 446.497C517.29 447.757 519.823 448.325 522.355 448.128C524.887 447.932 527.303 446.98 529.289 445.396C531.232 443.764 532.775 441.706 533.796 439.382C534.818 437.058 535.292 434.529 535.181 431.993C535.06 428.688 534.112 425.466 532.422 422.624C530.733 419.782 528.357 417.41 525.513 415.726C517.047 410.846 506.058 413.066 497.609 417.98C489.16 422.894 482.371 430.129 474.464 435.958C452.215 452.513 420.891 463.442 397.525 442.515C392.711 438.167 388.699 433.005 385.673 427.265" stroke="#D07F2C" stroke-width="2" stroke-miterlimit="10" stroke-linecap="round"/>
<path id="painting4line32" d="M373.564 409.812C372.793 403.652 373.419 397.397 375.395 391.512C380.39 376.906 395.629 362.706 412.069 365.57C414.679 366.006 417.171 366.972 419.393 368.408C421.615 369.845 423.519 371.722 424.988 373.924C427.884 378.38 427.122 383.548 428.121 388.513C430.424 399.883 440.82 404 451.047 406.474C461.768 408.991 472.903 409.193 483.708 407.067C500.217 403.865 517.047 395.375 533.336 404.102C552.655 414.455 558.733 442.719 537.535 454.512C536.601 455.037 535.64 455.512 534.656 455.935C522.313 461.12 509.343 455.935 499.743 447.666C499.336 447.328 498.947 446.972 498.558 446.616" stroke="#D07F2C" stroke-width="2" stroke-miterlimit="10" stroke-linecap="round"/>
<path id="painting4line31" d="M393.698 387.92C380.475 419.538 419.486 448.92 453.637 435.009" stroke="#D07F2C" stroke-width="2" stroke-miterlimit="10" stroke-linecap="round"/>
<path id="painting4line30" d="M286.628 316.037C270.128 330.537 266.128 315.037 250.128 321.037" stroke="#D07F2C" stroke-width="2"/>
<path id="painting4line29" d="M249.777 345.356C249.777 345.356 257.5 357 284.5 343" stroke="#D07F2C" stroke-width="2" stroke-linecap="round"/>
<path id="painting4line28" d="M408.802 389.614C409.665 413.981 449.066 437.635 488.161 411.642" stroke="#D07F2C" stroke-width="2" stroke-miterlimit="10" stroke-linecap="round"/>
<path id="painting4line27" d="M249.777 358.369C258.074 362.096 266.5 363.5 285 356" stroke="#D07F2C" stroke-width="2" stroke-miterlimit="10" stroke-linecap="round"/>
<path id="painting4line26" d="M296 353.5C311.5 351.5 324.149 345.753 334.437 339.763C346.729 332.409 357.058 322.514 370.84 317.854C400.691 307.687 434.691 310.737 462.764 324.784C479.391 333.104 493.918 346.287 498.083 365.112C498.083 365.468 498.236 365.807 498.304 366.163C502.198 385.717 492.75 404.814 470.451 401.848" stroke="#D07F2C" stroke-width="2" stroke-miterlimit="10" stroke-linecap="round"/>
<path id="painting4line25" d="M249.777 415.811C257 415.5 258 423 271.5 414.5" stroke="#D07F2C" stroke-width="2" stroke-miterlimit="10" stroke-linecap="round"/>
<path id="painting4line24" d="M249.777 372.771C256.5 377 266 377.5 287.5 367.5" stroke="#D07F2C" stroke-width="2" stroke-miterlimit="10" stroke-linecap="round"/>
<path id="painting4line23" d="M249.777 386.903C254.989 387.07 260 390 272 383.5" stroke="#D07F2C" stroke-width="2" stroke-miterlimit="10" stroke-linecap="round"/>
<path id="painting4line22" d="M301.5 364.5C345.98 350.944 363.407 326.733 394.765 321.226C421.619 316.515 454.89 323.649 473.989 344.254C480.762 351.557 485.368 361.334 484.369 371.484C483.183 383.43 475.683 392.41 463.593 394.172C462.006 394.406 460.405 394.531 458.802 394.545" stroke="#D07F2C" stroke-width="2" stroke-miterlimit="10" stroke-linecap="round"/>
<path id="painting4line21" d="M306.025 374.534C320.654 371.704 333.76 364.367 346.205 356.437C358.395 348.693 370.316 339.492 384.064 334.799C397.822 330.045 412.614 329.132 426.851 332.155C439.889 334.968 453.406 340.212 463.153 349.794C471.5 358 474.5 374.534 451.5 387.5" stroke="#D07F2C" stroke-width="2" stroke-miterlimit="10" stroke-linecap="round"/>
<path id="painting4line19" d="M298.458 289.802C318.658 289.581 378.866 320.125 424.43 291.539C469.994 262.953 470.62 263.14 470.62 263.14" stroke="#D07F2C" stroke-width="2" stroke-miterlimit="10" stroke-linecap="round"/>
<path id="painting4line18" d="M406.922 282.109C424.446 281.296 446.001 263.851 445.476 263.936" stroke="#D07F2C" stroke-width="2" stroke-miterlimit="10" stroke-linecap="round"/>
<path id="painting4line17" d="M548.083 324.496C548.988 316.62 552.484 309.267 558.02 303.596C563.556 297.925 570.819 294.256 578.667 293.166C586.514 292.077 594.501 293.629 601.371 297.578C608.241 301.527 613.604 307.65 616.617 314.982C619.63 322.315 620.122 330.442 618.016 338.085C615.91 345.729 611.325 352.454 604.982 357.205C598.639 361.956 590.898 364.461 582.977 364.329C575.055 364.196 567.403 361.431 561.222 356.471" stroke="#D07F2C" stroke-width="2" stroke-miterlimit="10" stroke-linecap="round"/>
<path id="painting4line16" d="M596.559 370.484C589.751 372.914 582.434 373.555 575.308 372.344C568.181 371.134 561.485 368.114 555.859 363.572C550.233 359.03 545.866 353.119 543.177 346.405C540.487 339.691 539.565 332.398 540.498 325.225" stroke="#D07F2C" stroke-width="2" stroke-miterlimit="10" stroke-linecap="round"/>
<path id="painting4line15" d="M543.569 306.698C548.197 297.721 555.652 290.549 564.762 286.31C573.871 282.07 584.12 281.003 593.897 283.276C603.674 285.549 612.424 291.033 618.774 298.867C625.123 306.7 628.711 316.439 628.974 326.553" stroke="#D07F2C" stroke-width="2" stroke-miterlimit="10" stroke-linecap="round"/>
<path id="painting4line14" d="M624.378 338.238C622.109 349.117 615.633 358.655 606.363 364.774" stroke="#D07F2C" stroke-width="2" stroke-miterlimit="10" stroke-linecap="round"/>
<path id="painting4line13" d="M391.7 571.836L424.362 558.721L434.03 558.298L437.908 553.774L450.098 553.553L455.297 561.517L462.069 560.856L460.596 551.367C462.611 539.825 463.14 528.071 462.171 516.394C460.732 495.315 460.732 494.162 460.732 494.162C466.895 537.964 472.703 550.859 472.703 550.859L472.381 562.805L476.207 564.991L479.306 557.857L488.094 558.111L493.834 568.143L495.256 580.749L503.434 589.222L512.018 589.374L510.156 579.207L514.609 563.872L538.601 562.839L541.683 587.663L546.983 591.221C552.858 585.917 560.528 585.528 564.592 587.527C566.947 588.713 569.559 589.296 572.194 589.222V579.5L592 578.5L592.072 587.646L611.121 587.358V581L639.5 579.5" stroke="#D07F2C" stroke-width="2" stroke-miterlimit="10" stroke-linecap="round"/>
<path id="painting4line12" d="M530.135 317.125C530.135 286.151 574.412 256.904 613.948 278.847" stroke="#D07F2C" stroke-width="2" stroke-miterlimit="10" stroke-linecap="round"/>
<path id="painting4line11" d="M520.688 304.061C527.867 264.716 571.822 259.819 571.822 259.819" stroke="#D07F2C" stroke-width="2" stroke-miterlimit="10" stroke-linecap="round"/>
<path id="painting4line10" d="M548.625 366.587C577.409 390.665 609.208 387.225 630.271 368.722" stroke="#D07F2C" stroke-width="2" stroke-miterlimit="10" stroke-linecap="round"/>
<path id="painting4line9" d="M530.999 378.617C563.17 403.136 599.133 408.05 636.231 383.819" stroke="#D07F2C" stroke-width="2" stroke-miterlimit="10" stroke-linecap="round"/>
<path id="painting4line8" d="M473.989 531.729C505.364 532.796 535.943 500.551 547.761 502.923C559.58 505.295 565.591 504.855 569.028 500.991C572.465 497.128 583.86 495.399 588.364 497.331C592.868 499.263 598.523 494.976 601.69 492.248C604.856 489.52 615.235 483.216 632.421 483.775C634.25 483.775 636.061 483.86 637.839 483.775" stroke="#D07F2C" stroke-width="2" stroke-miterlimit="10" stroke-linecap="round"/>
<path id="painting4line7" d="M525.953 534.745C541.412 523.443 558.818 527.645 567.86 527.323C576.901 527.001 588.483 520.223 601.723 521.833C614.964 523.443 612.357 527.323 626.546 525.391C630.439 524.998 634.5 523.5 639.5 520" stroke="#D07F2C" stroke-width="2" stroke-miterlimit="10" stroke-linecap="round"/>
<path id="painting4line6" d="M324.278 420.674C347.491 406.474 359.953 409.49 364.677 399.171" stroke="#D07F2C" stroke-width="2" stroke-miterlimit="10" stroke-linecap="round"/>
<path id="painting4line5" d="M322.94 452.919C327.241 428.417 349.591 430.552 358.175 427.113C366.76 423.673 367.2 413.794 367.2 413.794" stroke="#D07F2C" stroke-width="2" stroke-miterlimit="10" stroke-linecap="round"/>
<path id="painting4line4" d="M250.319 438.754C255.043 431.874 265.5 440 274.5 433" stroke="#D07F2C" stroke-width="2" stroke-miterlimit="10" stroke-linecap="round"/>
<path id="painting4line3" d="M249.879 459.799C258 448.5 262 457 274 451.5" stroke="#D07F2C" stroke-width="2" stroke-miterlimit="10" stroke-linecap="round"/>
<path id="painting4line2" d="M250 525.5C260 518 267 530 277 527" stroke="#D07F2C" stroke-width="2" stroke-miterlimit="10"/>
<path id="painting4line1" d="M269.5 574L249.879 574.632" stroke="#D07F2C" stroke-width="2" stroke-miterlimit="10"/>
<path id="painting4line20" d="M289.628 290.037C274.628 293.537 279.128 302.037 250.128 302.037" stroke="#D07F2C" stroke-width="2"/>
</g>
</g>
<g id="painting5">
<mask id="mask4_4_2" style="mask-type:alpha" maskUnits="userSpaceOnUse" x="250" y="250" width="390" height="390">
<rect id="painting5frame" x="250" y="250" width="390" height="390" fill="#C4C4C4"/>
</mask>
<g mask="url(#mask4_4_2)">
<path id="painting5line33" d="M472.107 641.011L491.74 569.289L498.342 545.186L500.837 536.047L504.787 521.654L520.952 462.565C520.954 462.56 520.954 462.554 520.954 462.548V462.548C520.954 462.542 520.955 462.537 520.957 462.531L526.534 442.181L530.641 427.182L553.236 344.57L557.204 330.125L573.594 270.209C573.674 269.918 574.086 269.914 574.172 270.204L599.674 356.934L601.788 364.148L611.388 396.801L619.044 422.838C619.046 422.844 619.047 422.849 619.047 422.855V422.855C619.047 422.861 619.048 422.867 619.049 422.872L629.773 459.331L630.57 462.019" stroke="#D07F2C" stroke-width="2" stroke-miterlimit="10" stroke-linecap="round"/>
<path id="painting5line30" d="M574.497 570.469L573.111 570.451" stroke="#D07F2C" stroke-width="2" stroke-miterlimit="10"/>
<path id="painting5line29" d="M459.631 568.613L399.903 567.919" stroke="#D07F2C" stroke-width="2" stroke-miterlimit="10"/>
<path id="painting5line28" d="M342.478 347.934C342.481 359.591 339.997 371.114 335.194 381.733C330.39 392.352 323.377 401.823 314.623 409.513C305.87 417.203 295.577 422.935 284.433 426.326C273.288 429.717 261.549 430.688 250 429.176V266.693C261.549 265.18 273.288 266.152 284.433 269.542C295.577 272.933 305.87 278.665 314.623 286.355C323.377 294.045 330.39 303.516 335.194 314.135C339.997 324.755 342.481 336.278 342.478 347.934V347.934Z" stroke="#D07F2C" stroke-width="2" stroke-miterlimit="10"/>
<path id="painting5line27" d="M327.992 346.408C327.992 364.184 320.936 381.231 308.377 393.8C295.817 406.369 278.783 413.43 261.02 413.43C257.328 413.432 253.641 413.125 250 412.511V280.305C253.643 279.706 257.329 279.404 261.02 279.403C269.815 279.401 278.523 281.133 286.648 284.499C294.773 287.865 302.157 292.8 308.376 299.023C314.595 305.245 319.528 312.632 322.894 320.763C326.26 328.893 327.992 337.608 327.992 346.408V346.408Z" stroke="#D07F2C" stroke-width="2" stroke-miterlimit="10"/>
<path id="painting5line26" d="M292.453 348.558C292.444 353.637 291.209 358.638 288.852 363.136C286.495 367.634 283.087 371.495 278.917 374.39C274.748 377.285 269.941 379.129 264.906 379.764C259.871 380.399 254.757 379.807 250 378.038V319.079C253.516 317.752 257.245 317.076 261.003 317.085C265.133 317.085 269.223 317.899 273.038 319.481C276.854 321.062 280.321 323.381 283.242 326.303C286.162 329.226 288.479 332.696 290.059 336.514C291.64 340.333 292.453 344.425 292.453 348.558V348.558Z" stroke="#D07F2C" stroke-width="2" stroke-miterlimit="10"/>
<path id="painting5line25" d="M250.988 470.898C278.712 462.678 287.376 491.967 315.1 483.747C342.825 475.528 334.161 446.239 361.885 438.02C389.61 429.8 398.274 459.089 425.998 450.869C453.723 442.65 445.059 413.361 472.783 405.142" stroke="#D07F2C" stroke-width="2" stroke-miterlimit="10" stroke-linecap="round"/>
<path id="painting5line24" d="M423.884 358.154C423.884 358.518 423.884 358.899 423.884 359.263C423.878 366.747 422.094 374.121 418.678 380.779C415.262 387.436 410.314 393.184 404.24 397.55C398.166 401.915 391.142 404.772 383.748 405.885C376.353 406.998 368.8 406.335 361.712 403.951" stroke="#D07F2C" stroke-width="2" stroke-miterlimit="10" stroke-linecap="round"/>
<path id="painting5line23" d="M253.448 493.996L481.863 417.471" stroke="#D07F2C" stroke-width="2" stroke-miterlimit="10" stroke-linecap="round"/>
<path id="painting5line22" d="M381.084 343.252H422.671" stroke="#D07F2C" stroke-width="2" stroke-miterlimit="10" stroke-linecap="round"/>
<path id="painting5line21" d="M386.907 352.79H426.917" stroke="#D07F2C" stroke-width="2" stroke-miterlimit="10" stroke-linecap="round"/>
<path id="painting5line20" d="M398.828 300.039V421.737" stroke="#D07F2C" stroke-width="2" stroke-miterlimit="10" stroke-linecap="round"/>
<path id="painting5line19" d="M374.448 305.345L455.265 342.992" stroke="#D07F2C" stroke-width="2" stroke-miterlimit="10" stroke-linecap="round"/>
<path id="painting5line18" d="M455.403 396.801C456.874 375.135 463.569 354.149 474.916 335.639C486.262 317.13 501.923 301.647 520.556 290.519C522.739 289.218 524.94 287.97 527.192 286.791" stroke="#D07F2C" stroke-width="2" stroke-miterlimit="10" stroke-linecap="round"/>
<path id="painting5line17" d="M463.443 394.078C465.37 378.122 471.133 362.871 480.237 349.631C489.342 336.391 501.518 325.557 515.721 318.056C517.385 317.166 519.066 316.334 520.764 315.559" stroke="#D07F2C" stroke-width="2" stroke-miterlimit="10" stroke-linecap="round"/>
<path id="painting5line16" d="M541.332 310.808C546.911 310.808 551.434 306.281 551.434 300.698C551.434 295.114 546.911 290.588 541.332 290.588C535.753 290.588 531.23 295.114 531.23 300.698C531.23 306.281 535.753 310.808 541.332 310.808Z" stroke="#D07F2C" stroke-width="2" stroke-miterlimit="10"/>
<path id="painting5line15" d="M617.193 335.293C622.772 335.293 627.295 330.767 627.295 325.183C627.295 319.6 622.772 315.073 617.193 315.073C611.614 315.073 607.091 319.6 607.091 325.183C607.091 330.767 611.614 335.293 617.193 335.293Z" stroke="#D07F2C" stroke-width="2" stroke-miterlimit="10"/>
<path id="painting5line14" d="M515.756 305.415L628.64 376.644C628.949 376.839 628.706 377.312 628.367 377.176L518.754 333.004" stroke="#D07F2C" stroke-width="2" stroke-miterlimit="10" stroke-linecap="round"/>
<path id="painting5line13" d="M573.076 382.841C578.101 382.841 582.173 378.765 582.173 373.737C582.173 368.709 578.101 364.633 573.076 364.633C568.052 364.633 563.979 368.709 563.979 373.737C563.979 378.765 568.052 382.841 573.076 382.841Z" stroke="#D07F2C" stroke-width="2" stroke-miterlimit="10"/>
<path id="painting5line12" d="M506.001 413.24C517.216 413.24 526.309 404.14 526.309 392.916C526.309 381.692 517.216 372.593 506.001 372.593C494.785 372.593 485.692 381.692 485.692 392.916C485.692 404.14 494.785 413.24 506.001 413.24Z" stroke="#D07F2C" stroke-width="2" stroke-miterlimit="10"/>
<path id="painting5line11" d="M387.548 536.689L582.555 500.637" stroke="#D07F2C" stroke-width="2" stroke-miterlimit="10" stroke-linecap="round"/>
<path id="painting5line10" d="M381.188 562.891L558.521 510.573" stroke="#D07F2C" stroke-width="2" stroke-miterlimit="10" stroke-linecap="round"/>
<path id="painting5line9" d="M364.027 469.385L323.334 572.236C323.268 572.403 323.071 572.475 322.913 572.39L264.115 540.864C263.973 540.789 263.797 540.837 263.715 540.975L260.847 545.774C260.761 545.918 260.809 546.104 260.954 546.188L365.397 606.726C365.521 606.798 365.679 606.772 365.773 606.664L520.73 429.743C520.834 429.624 520.828 429.445 520.717 429.333L514.256 422.868C514.135 422.747 513.938 422.751 513.823 422.877L478.58 461.366C478.462 461.494 478.261 461.496 478.141 461.37L474.159 457.181C474.041 457.058 473.845 457.057 473.727 457.178L437.177 494.561C437.061 494.68 436.871 494.681 436.752 494.565L416.359 474.512C416.232 474.388 416.025 474.4 415.914 474.539L396.412 498.993C396.302 499.13 396.099 499.144 395.971 499.024L364.512 469.277C364.358 469.132 364.105 469.188 364.027 469.385Z" stroke="#D07F2C" stroke-width="2" stroke-miterlimit="10"/>
<path id="painting5line8" d="M494.253 477.731L572.997 398.338C573.094 398.24 573.246 398.221 573.365 398.292L631.001 432.975" stroke="#D07F2C" stroke-width="2" stroke-miterlimit="10" stroke-linecap="round"/>
<path id="painting5line7" d="M639.77 448.577V478.334C636.998 480.867 633.573 482.574 629.883 483.262C626.192 483.95 622.383 483.592 618.885 482.228C615.387 480.864 612.34 478.549 610.087 475.544C607.835 472.538 606.467 468.962 606.137 465.22C605.808 461.478 606.531 457.718 608.224 454.365C609.917 451.012 612.513 448.199 615.719 446.245C618.925 444.29 622.613 443.271 626.367 443.304C630.121 443.336 633.791 444.418 636.963 446.427C637.645 446.86 638.299 447.334 638.921 447.849L639.77 448.577Z" stroke="#D07F2C" stroke-width="2" stroke-miterlimit="10"/>
<path id="painting5line6" d="M516.137 569.636L459.631 568.821C460.308 561.725 463.629 555.145 468.934 550.388C474.238 545.631 481.138 543.047 488.26 543.15C495.382 543.253 502.204 546.035 507.369 550.942C512.535 555.85 515.665 562.524 516.137 569.636V569.636Z" stroke="#D07F2C" stroke-width="2" stroke-miterlimit="10"/>
<path id="painting5line5" d="M490.544 608.722C489.103 601.754 490.332 594.499 493.986 588.395C497.64 582.291 503.452 577.784 510.271 575.767C517.09 573.751 524.417 574.373 530.799 577.509C537.181 580.645 542.153 586.067 544.728 592.699" stroke="#D07F2C" stroke-width="2" stroke-miterlimit="10" stroke-linecap="round"/>
<path id="painting5line4" d="M573.163 568.63C573.163 569.237 573.163 569.844 573.163 570.364L516.536 569.567C516.536 569.237 516.536 568.89 516.536 568.561C516.536 561.037 519.522 553.821 524.839 548.501C530.155 543.18 537.366 540.191 544.884 540.191C552.402 540.191 559.613 543.18 564.929 548.501C570.246 553.821 573.232 561.037 573.232 568.561L573.163 568.63Z" stroke="#D07F2C" stroke-width="2" stroke-miterlimit="10"/>
<path id="painting5line3" d="M630.657 570.486V571.249L574.445 570.451C574.437 563.257 577.16 556.328 582.063 551.066C586.967 545.805 593.685 542.605 600.857 542.114C608.029 541.622 615.12 543.876 620.695 548.419C626.269 552.963 629.911 559.456 630.882 566.584C630.718 567.878 630.643 569.182 630.657 570.486Z" stroke="#D07F2C" stroke-width="2" stroke-miterlimit="10"/>
<path id="painting5line2" d="M280.133 592.977C280.146 601.4 277.095 609.541 271.55 615.878C266.005 622.215 258.345 626.316 250 627.416V558.555C258.342 559.654 266 563.753 271.545 570.087C277.089 576.42 280.142 584.556 280.133 592.977Z" stroke="#D07F2C" stroke-width="2" stroke-miterlimit="10"/>
<path id="painting5line1" d="M268.679 592.873C268.682 598.29 266.83 603.544 263.431 607.76C260.031 611.976 255.291 614.898 250 616.04V569.706C255.291 570.848 260.031 573.77 263.431 577.986C266.83 582.202 268.682 587.456 268.679 592.873Z" stroke="#D07F2C" stroke-width="2" stroke-miterlimit="10"/>
</g>
</g>
</g>
</g>
</svg>
